<svg xmlns="http://www.w3.org/2000/svg" version="1.1" width="600px" height="600px" viewBox="0 0 200 200" style="overflow:hidden!important;"><g id="svga-group-wrapper"><g id="svga-group-backs-single"><path id="SvgjsPath8370" d="M0 0h200v200H0V0z" fill="#ecf0f1" stroke-width="none" opacity="1"></path></g><g id="svga-group-humanwrap-move" transform="matrix(1,0,0,1,0,0)"><g id="svga-group-humanwrap"><g id="svga-group-hair-back-move" transform="matrix(1,0,0,1,0,0)"><g id="svga-group-hair-back"></g></g><g id="svga-group-humanbody-back"><path id="SvgjsPath7548" d="m168.5 219.5-1.7-21.5s.7-9-8.8-15.3-23.4-10.1-29.5-14.2c-6.1-4.1-9.2-4.5-9-16.9s.9-40.3.9-40.3H79.6s.7 27.9.9 40.3c.2 12.4-2.9 12.8-9 16.9-6.1 4.1-20 7.9-29.5 14.2S33.2 198 33.2 198l-1.6 21.5h136.9z" fill="#f3d4cf" stroke-width="none" opacity="1" stroke="none"></path></g><g id="svga-group-chinshadow-single"><path id="SvgjsPath7544" d="M80.4 155.4c5.9 5.8 12.6 9.3 19.6 9.3s13.7-3.5 19.6-9.3c-.1-1.1-.1-2.4-.1-3.8.2-12.4.9-40.3.9-40.3H79.6s.7 27.9.9 40.3c0 1.4 0 2.7-.1 3.8z" fill="#d4958a" stroke-width="none" opacity="0.65" stroke="none"></path></g><g id="svga-group-humanbody-front"><path id="SvgjsPath7549" d="M73.8 175.9c5.1 2.9 11.8 5.2 17.6 5.7.4 0 .4-.6.1-.7-2.8-1.1-5.9-1.7-8.8-2.6-2.9-.9-5.8-2-8.8-2.7-.1-.1-.3.2-.1.3zm35.2 6.2c5.3-.6 11.3-3 15.9-5.8.3-.2.1-.6-.2-.5-2.6.9-5.2 2-7.8 2.9-2.6.9-5.4 1.5-8 2.5-.5.1-.5.9.1.9z" fill="#d4958a" stroke-width="none" opacity="1" stroke="none"></path><path id="SvgjsPath7550" d="m168.4 219.4-2.1-21.4c0-2.2-.5-4.5-1.5-6.6-.9-2.1-2.3-3.9-3.9-5.5s-3.5-2.8-5.5-4c-2-1.2-4.1-2.2-6.2-3.1-4.2-1.9-8.6-3.6-12.9-5.4-2.2-.9-4.3-1.9-6.4-3-1.1-.6-2.1-1.2-3-1.9-1-.6-2-1.2-3-1.9s-2-1.5-2.8-2.6c-.8-1-1.3-2.2-1.7-3.4-.7-2.4-.8-4.8-.8-7.2 0-4.7.2-9.4.3-14.1.2-9.4.6-18.7.9-28l.6.6-20.4-.2-20.4-.1.3-.3.7 28c.1 4.7.3 9.3.4 14 0 2.4-.1 4.7-.8 7.1-.3 1.2-.9 2.3-1.6 3.3-.8 1-1.7 1.8-2.7 2.5s-2 1.3-2.9 2c-.9.6-1.9 1.3-3 1.9-2.1 1.2-4.2 2.1-6.4 3.1-4.3 1.9-8.6 3.6-12.8 5.6-2.1 1-4.2 2.1-6.1 3.2-2 1.2-3.8 2.4-5.4 4-1.6 1.6-2.9 3.4-3.8 5.4-.4 1-.8 2.1-1 3.1-.2 1.1-.4 2.2-.3 3.2v.2l-1.5 21.5-1-1.1 34 .1c11.3 0 22.7.1 34.1.2l34.2.3 34.4.5zm.2.2-34 .4-34.2.3c-11.4.1-22.9.2-34.4.2l-34.4.1h-1.1l.1-1.1 1.7-21.5v.1c-.1-5.1 2.2-9.8 5.7-13.3 1.7-1.7 3.8-3.1 5.8-4.3 2-1.2 4.2-2.2 6.3-3.2 4.3-2 8.7-3.7 13-5.4 2.1-.9 4.3-1.8 6.3-2.9 1-.5 1.9-1.1 3-1.8 1-.6 2-1.2 2.9-1.9.9-.6 1.8-1.4 2.4-2.2.7-.9 1.2-1.9 1.5-2.9.6-2.1.8-4.5.8-6.8 0-4.6-.1-9.3-.2-14l-.6-28v-.3h.3l20.4-.1 20.4-.2h.6v.6c-.1 9.3-.2 18.7-.4 28-.1 4.7-.2 9.4-.2 14 .1 2.3.2 4.6.8 6.7.3 1.1.8 2 1.4 2.9.6.8 1.4 1.6 2.4 2.2.9.6 1.9 1.3 2.9 1.9 1 .7 1.9 1.3 2.9 1.8 2 1.1 4.1 2.1 6.3 3 4.3 1.8 8.6 3.6 12.9 5.6 2.1 1 4.2 2.1 6.2 3.3 2 1.2 4 2.6 5.7 4.3 3.4 3.4 5.6 8.1 5.4 13v-.1l1.4 21.6zm-112.8-.4 1.9-13.8.1 13.8h-2zm88.6 0-1.9-13.8-.1 13.8h2z" fill="#c5796d" stroke-width="none" opacity="1" stroke="none"></path></g><g id="svga-group-clothes-single"><path id="SvgjsPath8202" d="m122.4 220 2.7-26.8s-14.3 16-25 19.1c0 0-16.5-9.3-26.3-19.1l3.9 26.8h44.7z" fill="#efefef" stroke-width="none" opacity="1"></path><path id="SvgjsPath8203" d="M125.3 192.9c-.2-.2-.4-.1-.6 0a147.859 147.859 0 0 1-11.5 10.9c-2 1.7-4.1 3.3-6.3 4.8-2.2 1.4-4.5 2.7-6.9 3.5-2.3-1.3-4.6-2.7-6.9-4.2-2.3-1.5-4.5-3-6.7-4.6-4.4-3.2-8.6-6.6-12.4-10.4-.1-.1-.2-.1-.3-.1-.2 0-.3.2-.3.4.6 4.5 1.2 8.9 1.8 13.4.6 4.5 1.2 8.9 1.9 13.4 0 .2.3.4.5.4h11.3l11.2-.1 11.2-.1 11.1-.2 1.6-13.3 1.5-13.5c0-.1-.1-.2-.2-.3zm-1.9 13.5-1.1 13.5-11.3-.2-11.2-.1-11.2-.1H77.9c-.6-4.3-1.3-8.6-1.9-13-.6-4.1-1.2-8.2-1.9-12.3 3.7 3.5 7.8 6.6 11.9 9.5 2.2 1.6 4.5 3.1 6.8 4.5s4.6 2.9 7 4.3h.1c2.6-.8 4.9-2 7.2-3.4s4.4-3 6.5-4.6c2.1-1.7 4.1-3.4 6-5.3 1.6-1.5 3.2-3.2 4.7-4.8-.2 4-.5 8-.9 12z" fill="#008fa6" stroke-width="none" opacity="1"></path><path id="SvgjsPath8204" d="M75.7 167.9s1.2-3.7 1.7-6.4c.6-2.7.4-9.3.4-9.3s-1.9 4.1-4.6 6.4-13.2 9.1-13.2 9.1l2.3 1.6S37.7 178 36 179.2c-1.7 1.2-1.9 3.7-1.9 3.7l-2.1.6c-4.1 16.8-4.1 36.6-4.1 36.6h54.5s-2.3-16.6-3.3-23c-.9-6.5-3.4-29.2-3.4-29.2zm92.7 15.5-2.1-.6s-.2-2.5-1.9-3.7c-1.7-1.2-26.3-9.9-26.3-9.9l2.3-1.6s-10.4-6.8-13.2-9.1c-2.7-2.3-4.6-6.4-4.6-6.4s-.2 6.6.4 9.3 1.7 6.4 1.7 6.4-2.5 22.6-3.5 29c-1 6.4-3.3 23-3.3 23h54.5c0 .2 0-19.5-4-36.4z" fill="#09aac5" stroke-width="none" opacity="1"></path><path id="SvgjsPath8205" d="M140.3 179c-1.8-1.9-4.2-3.2-6.2-5-2-1.8-3.6-3.9-5.4-5.9-.2-.2-.6.1-.4.3 1.3 2.5 3.1 4.7 5.1 6.7 1.7 1.7 3.9 3.9 6.3 4.7-5.2 9.5-8.4 21.2-9.6 31.9 0 .2.3.3.4.1 1.2-5.5 2.2-11 3.9-16.4 1.6-5.4 4.1-10.4 6.1-15.7.1-.1 0-.2-.1-.3.1-.1 0-.2-.1-.4zm-2-11.9c-2.1-1.2-4.3-2.2-6.3-3.6-2.2-1.5-4.2-3.3-6.1-5.2-.2-.2-.4.1-.2.2 3.1 3.9 7.5 7.8 12.4 9.1.3.2.5-.3.2-.5zm18.9 10.5c-5.7-2.4-11.6-4.6-17.5-6.4-.2-.1-.3.2-.1.3 3.5 1.7 7.1 3.3 10.7 4.8 4.6 1.9 10.2 3.1 12.7 7.8.2.4.8.1.7-.3-.6-3.5-3.5-5-6.5-6.2zm9.5 8.4c-.1-.4-.7-.3-.7.1.7 5.4 1.9 10.6 2.5 16 .6 5.4.4 10.9 1.1 16.2 0 .4.5.4.6 0 1.2-9.9-.4-22.8-3.5-32.3zm-92.6-16.9c.5-1 .6-2.2.8-3.3.3-1.2.7-2.4 1-3.6.1-.2-.2-.3-.3-.1-.7 1-1.1 2.1-1.6 3.2-.4 1.1-.9 2.4-.8 3.6.1.4.7.7.9.2zm-.3 1.6c0-.1-.2-.1-.2 0-.1 6.5 1.2 13.2 2.2 19.7 1 7.1 2.1 14.3 4 21.3 0 .1.1 0 .1 0-.7-6.6-1.8-13.1-2.8-19.6-1.2-7-1.5-14.4-3.3-21.4zm-5.1 0c-2.8 3.1-5.4 5.9-8.8 8.3-.4.3-.3.9.1 1 1.4 4.4 3.4 8.5 4.8 12.9 1.4 4.5 2.3 9.2 3.5 13.7.1.3.5.2.5-.1-.5-8.7-3.2-19.2-7.9-26.7 3.3-2.3 6.5-5.2 8.4-8.7 0-.4-.4-.7-.6-.4zm-32.6 11.1c1.3 5.7 3.9 11.4 5.9 16.9.1.3.5.2.5-.1-1.1-5.6-2.6-12.2-5.6-17.1-.4-.4-.9-.1-.8.3z" fill="#1fbad4" stroke-width="none" opacity="1"></path><path id="SvgjsPath8206" d="M80.7 200.4c-.3-2.2-.6-4.3-.9-6.5-1.1-8.6-2.2-17.3-3.4-25.9.4-1.2.7-2.5 1-3.7.1-.3.2-.6.2-.9.3-.4.9-1.1 1.3-2 .6-1.4 1.1-3.8 1.2-6.2s0-4.8 0-4.8-2.4 1.1-2.5 1.8c-.9 1.8-1.9 3.4-3.2 4.9-1.2 1.5-2.9 2.6-4.5 3.8-3 2.1-6 4.1-9.2 6-.3.2-.6.3-.9.5l-.1.1c-.2.2-.1.5.1.6.4.3.8.6 1.2.8l.2.2c-4.8 1.6-9.6 3.2-14.4 4.9-2.5.9-5.1 1.8-7.6 2.8l-1.9.8-1 .4c-.3.2-.7.3-1 .6-.7.5-1.2 1.2-1.5 1.9-.2.5-.4 1.1-.5 1.6l-1.6.4c-.3.1-.5.3-.6.6-1.4 6-2.2 12.2-2.8 18.3-.2 3.1-.5 6.1-.5 9.2 0 1.5-.1 3.1-.1 4.6v4.6l27 .6 13.8.2c4.6.1 9.2.1 13.8.1h.2c.6-.1 1-.6.9-1.2l-1.8-13-.9-6.1zM28 219.9c.1-.1 0-.3.1-.5v-.6l.1-1.1.1-2.3c.1-1.5.2-3.1.4-4.6.3-3.1.6-6.1 1-9.1s.9-6.1 1.4-9.1c.5-2.9 1.1-5.7 1.8-8.5l1.6-.4h.1c.5 1.2 1.1 2.4 1.5 3.7l.9 2.2.8 2.3c1 3 1.9 6.1 2.6 9.2.8 3.1 1.4 6.2 2 9.4.3 1.6.5 3.2.7 4.8.2 1.4.4 2.9.5 4.4l-15.6.2zm41-.8-13.5.2-12 .3c0-3.1-.2-6.2-.6-9.2-.4-3.2-1-6.4-1.7-9.5-.8-3.1-1.7-6.2-2.9-9.2-1-2.8-2.3-5.4-3.8-8 .2-.1.4-.4.4-.6.1-1.1.6-2.3 1.4-2.9.2-.2.4-.2.7-.4l.9-.4 1.9-.8 7.5-2.9 15-5.7c1.2.6 2.5 1.1 3.9 1.5-.5.4-1 .9-1.5 1.3-1.2 1-2.5 2-3.7 3-1.3.9-2.6 1.8-3.9 2.6-.4.2-.5.7-.4 1.1 1.3 3.3 2.6 6.6 3.8 9.9 1.2 3.3 2.3 6.7 3.5 10.1 1.1 3.4 2.1 6.8 3.1 10.2.9 3.1 1.6 6.3 2.4 9.5-.2-.1-.3-.1-.5-.1zm.6 0c-.3-3.3-.7-6.5-1.3-9.7-.7-3.5-1.5-7-2.5-10.5s-2.1-6.9-3.3-10.3c-1.2-3.1-2.4-6.2-3.8-9.3 1.2-.8 2.2-1.6 3.3-2.5 1.2-1 2.4-2.1 3.6-3.3 2.3-2.3 4.5-4.6 6.5-7.1-1.9 1.7-3.7 3.3-5.6 4.9-1.2-.9-2.4-1.6-3.7-2.3 0 0 0-.1-.1-.1l-1.1-.7c-.2-.1-.4-.3-.7-.4.1-.1.2-.1.3-.2 3-2 6-4.1 9-6.2 1.6-1.2 3.3-2.3 4.7-3.8 1-1.2 1.9-2.5 2.7-3.8 0 2.2-.1 4.4-.3 6.5-.2 1.3-.5 2.5-.9 3.8-.4 1.3-.8 2.5-1.2 3.8v.2c.8 8.7 1.8 17.4 2.8 26.1.2 2.2.5 4.4.8 6.5l.9 6.5 1.7 11.8c-4 0-7.9 0-11.8.1zm102.9-8.3c-.1-3.1-.3-6.1-.6-9.2-.5-6.1-1.4-12.3-2.8-18.3-.1-.3-.3-.5-.6-.6l-1.6-.4c-.1-.6-.2-1.1-.5-1.6-.3-.7-.8-1.4-1.5-1.9-.3-.3-.7-.4-1.1-.6l-1-.4-1.9-.8c-2.5-1-5.1-1.9-7.6-2.8-4.8-1.7-9.6-3.3-14.4-4.9l.2-.2c.4-.3.8-.5 1.2-.8.2-.1.3-.4.1-.6 0-.1-.1-.1-.1-.1-.3-.2-.6-.4-.9-.5-3.1-1.9-6.2-3.9-9.1-6-1.6-1.2-3.3-2.3-4.5-3.8-1.3-1.5-2.3-3.2-3.2-4.9 0-.1-.1-.1-.1-.1-.5-.6-2.4-1.1-2.4-1.1-.1 2.9-.1 7.4.5 9.7.4 1.7 1.8 3.6 2.4 4.5.3 1 .5 2 .8 2.9-1.2 8.6-2.3 17.2-3.4 25.9-.3 2.2-.6 4.3-.9 6.5l-1 6.5-1.8 13c-.1.6.3 1.1.9 1.2h.2c4.6 0 9.2 0 13.8-.1l13.8-.2 27-.6c.1-.3 0-.5.1-.6v-4c.1-2.1.1-3.6 0-5.1zm-53.4 8.1 1.7-11.8.9-6.5c.3-2.2.6-4.3.8-6.5 1-8.7 1.9-17.4 2.8-26.1v-.2c-.4-1.2-.8-2.5-1.2-3.8-.3-1.3-.7-2.5-.9-3.8-.2-2.1-.3-4.3-.3-6.5.8 1.4 1.7 2.6 2.7 3.8 1.3 1.6 3.1 2.7 4.7 3.8 3 2.1 6 4.1 9 6.2.1.1.2.1.3.2-.2.1-.4.3-.7.4l-1.1.7-.1.1c-1.3.7-2.5 1.4-3.7 2.3-1.9-1.6-3.8-3.2-5.6-4.9 2 2.5 4.2 4.9 6.5 7.1 1.1 1.1 2.3 2.2 3.6 3.3 1.1.9 2.1 1.7 3.3 2.5-1.4 3.1-2.6 6.1-3.8 9.3-1.2 3.4-2.4 6.8-3.3 10.3-1 3.4-1.8 7-2.5 10.5-.6 3.2-1.1 6.5-1.3 9.7-4 0-7.9 0-11.8-.1zm25.8.4-13.5-.2h-.5c.8-3.2 1.5-6.3 2.4-9.5.9-3.4 2-6.9 3.1-10.2 1.1-3.4 2.2-6.8 3.5-10.1 1.2-3.3 2.5-6.7 3.9-9.9.2-.4 0-.9-.4-1.1-1.3-.7-2.6-1.6-3.9-2.6-1.3-.9-2.5-1.9-3.7-3-.5-.4-1-.9-1.5-1.3 1.3-.4 2.6-1 3.9-1.5l15 5.7 7.5 2.9 1.9.8.9.4c.3.1.5.2.7.4.8.6 1.3 1.8 1.4 2.9 0 .3.2.5.4.6-1.4 2.6-2.7 5.2-3.8 8-1.2 3-2.1 6.1-2.9 9.2-.7 3.1-1.4 6.3-1.7 9.5-.4 3.1-.6 6.1-.6 9.2l-12.1-.2zm12 .3c.2-1.5.3-2.9.6-4.4.2-1.6.5-3.2.7-4.8.6-3.2 1.2-6.3 1.9-9.4.7-3.1 1.6-6.2 2.6-9.2l.8-2.3.9-2.2c.4-1.2 1-2.4 1.5-3.7h.1l1.6.4c.6 2.8 1.3 5.6 1.8 8.5.5 3 1 6 1.4 9.1.4 3 .7 6.1.9 9.1.1 1.5.3 3.1.4 4.6l.1 2.3.1 1.1v.6c0 .2 0 .4.1.5l-15.5-.2z" fill="#008fa6" stroke-width="none" opacity="1"></path></g><g id="svga-group-head" transform="matrix(1,0,0,1,0,0)"><g id="svga-group-ears-left-move" transform="matrix(1,0,0,1,0,0)"><g id="svga-group-ears-left"><path id="SvgjsPath7498" d="M64.2 96.3c-.2-.3-3.1-4-5.5-6.3-2.5-2.3-3.2-2.2-4.4-.8s-2.7 8.5-2.3 11.7 3.3 8.2 4.9 11c1.6 2.8 3.1 6.3 4.8 6 1.8-.3 4.2-4.3 5.3-7.3 1.2-3 .6-10.3-2.8-14.3z" fill="#f3d4cf" stroke-width="none" opacity="1" stroke="none"></path><path id="SvgjsPath7499" d="M67.9 104.8c.1.8.2 1.6.2 2.4s0 1.6-.2 2.4l-.3 1.2c-.1.4-.3.7-.4 1-.3.7-.6 1.3-.9 2-.7 1.2-1.4 2.4-2.4 3.4-.5.5-1 1-1.7 1.2-.3.1-.8.1-1.2 0-.4-.2-.7-.4-1-.7-1.2-1.2-1.8-2.6-2.5-4s-1.4-2.7-2.1-4.1c-.7-1.4-1.4-2.8-2-4.2-.3-.7-.6-1.4-.9-2.2-.3-.7-.5-1.5-.6-2.3-.2-1.6 0-3.2.1-4.7.2-1.5.4-3 .8-4.5.2-.7.4-1.5.7-2.2.1-.2.2-.3.3-.5s.2-.4.3-.5c.2-.3.5-.5.8-.7s.7-.3 1.1-.3c.4.1.7.2 1.1.4.6.4 1.1.9 1.7 1.4 2 2.1 3.7 4.5 5.6 6.8 1.8 2.5 2.9 5.6 3.5 8.7zm-9.6-14.6c-1-.8-2.2-1.7-2.9-1.2-.2.1-.4.3-.6.6-.1.1-.2.2-.2.3-.1.1-.1.3-.2.4-.3.6-.5 1.2-.7 1.9-.4 1.3-.8 2.8-1.1 4.2-.3 1.4-.5 3-.4 4.4.1.7.3 1.5.5 2.2l.9 2.1c.6 1.4 1.4 2.7 2.2 4s1.6 2.6 2.3 3.9c.4.7.7 1.3 1.1 1.9.4.6.8 1.2 1.2 1.6s.8.6 1.2.4.9-.5 1.3-1c.8-.9 1.5-2 2.2-3.2l.9-1.8c.1-.3.3-.6.4-.9l.2-.4c0-.2.1-.3.1-.5.3-1.3.3-2.8.3-4.3-.1-1.5-.3-3-.8-4.5s-1.2-2.9-2.1-4c-1.7-2.2-3.7-4.4-5.8-6.1z" fill="#e4b3ab" stroke-width="none" opacity="1" stroke="none"></path><path id="SvgjsPath7500" d="M54.1 102.4c-.2-2.1-.4-7.4.8-9 2-2.7 5.6 6.1 6.5 8.8 0 .1.1.2.1.2.1.3-.1.7-.4.6-.4-.2-.8-.6-1.2-.8-1.1-.5-1.5.4-1.2 1.7.4 1.7 1.3 2.7 2.1 4 .1.2 0 .4-.2.3-1.5-.9-3.3-4.2-2.9-6.2.3-1.8 1.8-1.7 2.9-.8-.7-1.6-1.4-3.1-2.3-4.5-.6-.9-1.1-1.9-2-2-1.1-.2-.9.3-1.1 1.7-.8 4.6-.3 9.7 2.4 13.7.1.1 0 .2-.1.1-2-2.2-3.1-4.7-3.4-7.8z" fill="#d4958a" stroke-width="none" opacity="1" stroke="none"></path></g></g><g id="svga-group-ears-right-move" transform="matrix(1,0,0,1,0,0)"><g id="svga-group-ears-right"><path id="SvgjsPath7501" d="M135.8 96.3c.2-.3 3.1-4 5.5-6.3 2.5-2.3 3.2-2.2 4.4-.8s2.7 8.5 2.3 11.7-3.3 8.2-4.9 11c-1.6 2.8-3.1 6.3-4.8 6-1.8-.3-4.2-4.3-5.3-7.3-1.2-3-.6-10.3 2.8-14.3z" fill="#f3d4cf" stroke-width="none" opacity="1" stroke="none"></path><path id="SvgjsPath7502" d="M135.7 96.3c1.8-2.3 3.5-4.7 5.6-6.8.5-.5 1-1 1.7-1.4.3-.2.7-.4 1.1-.4.4-.1.8.1 1.1.3.3.2.6.5.8.7.1.1.2.3.3.5s.2.3.3.5c.3.7.5 1.4.7 2.2.4 1.5.6 3 .8 4.5.1 1.5.3 3.1.1 4.7-.1.8-.3 1.6-.6 2.3-.3.8-.6 1.5-.9 2.2-.6 1.4-1.3 2.8-2 4.2-.7 1.4-1.4 2.7-2.1 4.1-.7 1.4-1.4 2.8-2.5 4-.3.3-.6.6-1 .7s-.9.2-1.2 0c-.7-.2-1.2-.7-1.7-1.2-1-1-1.7-2.2-2.4-3.4-.3-.6-.6-1.3-.9-2-.1-.3-.3-.7-.4-1l-.3-1.2c-.1-.8-.2-1.6-.2-2.4s.1-1.6.2-2.4c.5-3.3 1.6-6.4 3.5-8.7zm.1.1c-.9 1.1-1.6 2.5-2.1 4s-.7 3-.8 4.5 0 3 .3 4.3c0 .2.1.3.1.5l.2.4c.1.3.3.6.4.9l.9 1.8c.6 1.2 1.4 2.3 2.2 3.2.4.4.9.8 1.3 1 .4.2.8 0 1.2-.4s.8-1 1.2-1.6.8-1.3 1.1-1.9c.7-1.3 1.6-2.6 2.3-3.9.8-1.3 1.5-2.6 2.2-4l.9-2.1c.3-.7.5-1.5.5-2.2.1-1.5-.1-3-.4-4.4-.3-1.4-.6-2.9-1.1-4.2-.2-.7-.5-1.3-.7-1.9-.1-.1-.1-.3-.2-.4-.1-.1-.1-.2-.2-.3l-.6-.6c-.7-.6-1.8.4-2.9 1.2-2 1.6-4 3.8-5.8 6.1z" fill="#e4b3ab" stroke-width="none" opacity="1" stroke="none"></path><path id="SvgjsPath7503" d="M145.9 102.4c.2-2.1.4-7.4-.8-9-2-2.7-5.6 6.1-6.5 8.8 0 .1-.1.2-.1.2-.1.3.1.7.4.6.4-.2.8-.6 1.2-.8 1.1-.5 1.5.4 1.2 1.7-.4 1.7-1.3 2.7-2.1 4-.1.2 0 .4.2.3 1.5-.9 3.3-4.2 2.9-6.2-.3-1.8-1.8-1.7-2.9-.8.7-1.6 1.4-3.1 2.3-4.5.6-.9 1.1-1.9 2-2 1.1-.2.9.3 1.1 1.7.8 4.6.3 9.7-2.4 13.7-.1.1 0 .2.1.1 2-2.2 3.1-4.7 3.4-7.8z" fill="#d4958a" stroke-width="none" opacity="1" stroke="none"></path></g></g><g id="svga-group-faceshape-wrap"><g id="svga-group-faceshape-single"><path id="SvgjsPath7530" d="M141 88.4c0 30.3-18.9 65.2-41 65.2s-41-34.9-41-65.2 18.9-47 41-47 41 16.6 41 47z" fill="#f3d4cf" stroke-width="none" opacity="1" stroke="none"></path><path id="SvgjsPath7531" d="M100 41.3c-22.1 0-41.1 16.7-41.1 47s19 65.5 41.1 65.5 41.1-35.2 41.1-65.5-19-47-41.1-47zm28.2 13.6.8.8c.3.3.5.6.8.9.3.3.5.6.8.9l.7.9c.2.3.5.6.7.9l.7 1 .3.5.3.5c.4.7.9 1.3 1.2 2l.6 1c.2.3.4.7.5 1l.5 1.1.5 1.1c.2.4.3.7.5 1.1l.4 1.1c2.3 5.9 3.2 12.4 3.3 18.7 0 6.4-.9 12.8-2.6 18.9-.8 3.1-1.9 6.1-3.1 9-1.2 2.9-2.5 5.8-4 8.6s-3.1 5.5-4.8 8.1c-.9 1.3-1.8 2.6-2.7 3.8-.9 1.2-1.9 2.4-3 3.6-2 2.3-4.3 4.4-6.7 6.3-2.4 1.8-5 3.3-7.8 4.3-1.4.5-2.8.9-4.3 1-1.5.2-2.9.2-4.4.1-3-.2-5.9-1.2-8.6-2.6-2.7-1.4-5.3-3.3-7.6-5.4-2.3-2.1-4.4-4.5-6.3-7.1s-3.6-5.3-5-8.1c-1.5-2.8-2.8-5.7-3.9-8.7-.6-1.5-1.1-3-1.6-4.5s-.9-3-1.3-4.6c-.8-3.1-1.4-6.2-1.8-9.3-.4-3.1-.7-6.3-.8-9.4 0-1.6 0-3.1.1-4.7 0-.8.1-1.6.1-2.3l.2-2.3c.3-3.1.9-6.2 1.7-9.1.8-3 1.8-5.9 3.2-8.6.2-.4.3-.7.5-1l.5-1c.4-.7.8-1.3 1.2-2 .4-.6.8-1.3 1.3-1.9l.7-.9.3-.5.4-.4c1.9-2.4 4.1-4.5 6.5-6.3s5-3.3 7.8-4.5 5.7-2 8.6-2.5c.7-.2 1.5-.2 2.2-.3.4-.1.8-.1 1.1-.1l1.1-.1c.8 0 1.5-.1 2.3-.1H102.6l1.1.1c.4 0 .8.1 1.1.1.4 0 .8.1 1.1.1l1.1.2.6.1.6.1 1.1.2c.4.1.7.2 1.1.3s.7.2 1.1.3c1.4.4 2.9.9 4.3 1.5s2.8 1.2 4.1 2c2.7 1.5 5.2 3.3 7.4 5.4l.4.4.5.3z" fill="#c5796d" stroke-width="none" opacity="1" stroke="none"></path></g></g><g id="svga-group-mouth-single-move" transform="matrix(1,0,0,1,0,0)"><g id="svga-group-mouth-single"><path id="SvgjsPath7486" d="M86.9 128.6s2-.5 3.7-2.3c1.8-1.8 2.3-2.2 3.2-2.6 1-.4 3.2-1 4.9.4 1.6 1.3 2 .5 2.7 0s2-1.4 4.2-.6 4.3 3.4 5.6 4.1 2.2.9 2.2.9-1.7 2.4-3.1 3.8c-1.9 2-4.3 2.7-8.6 3-4.3.3-7.2-.5-9-1.7-1.9-1.2-3.5-3.2-3.9-3.6-.5-.5-1.9-1.4-1.9-1.4z" fill="#da7c87" stroke-width="none" opacity="1" transform="translate(0 3)" stroke="none"></path><path id="SvgjsPath7487" d="M86.2 128.6c1.8.9 3.6.8 5.5.4 1.4-.3 2.9-.6 4.3-.5s2.7.8 4.2.9c1.1 0 2-.4 3-.7 1.9-.6 3.5-.3 5.4.1 1.9.4 4 1 5.7-.2.3-.2.1-.6-.2-.6-2.7.5-4.7-.2-7.4-.6-2.4-.4-4.4 1.1-6.8.8-2-.2-3.5-1-5.5-.7-2.7.3-5.2 1.4-7.9.4-.4 0-.6.6-.3.7z" fill="#cb5f6c" stroke-width="none" opacity="1" transform="translate(0 3)" stroke="none"></path><path id="SvgjsPath7488" d="M109.8 130.3c-4.4.3-8.6 1.8-13 1.6-.2 0-.3.3-.1.4 4.3 1.1 9.6 1.4 13.2-1.8.1-.1 0-.2-.1-.2z" fill="#e99ca5" stroke-width="none" opacity="1" transform="translate(0 3)" stroke="none"></path></g></g><g id="svga-group-eyes-left-move" transform="matrix(1,0,0,1,0,0)"><g id="svga-group-eyes-left"><g id="svga-group-eyesback-left"><path id="SvgjsPath7603" d="M92.1 98.1s-3.5 2.7-5.9 3.2c-2.4.5-6.1.8-9.4-.1-3.2-1-4.9-2.8-4.9-2.8s1.4-2.6 3.4-3.6 4.1-2.6 8.6-1.9 7.3 3.7 8.2 5.2z" fill="#ffffff" stroke-width="none" opacity="1"></path></g><g id="svga-group-eyesiriswrapper-left" transform="matrix(1,0,0,1,0,0)"><g id="svga-group-eyesiriscontrol-left" transform="matrix(1,0,0,1,0,0)"><g id="svga-group-eyesiris-left"><path id="SvgjsPath7565" d="M82 91.5c2.7 0 4.9 2.2 4.9 4.9s-2.2 4.9-4.9 4.9-4.9-2.2-4.9-4.9 2.2-4.9 4.9-4.9z" fill="#4e60a3" stroke-width="none" opacity="1"></path><path id="SvgjsPath7566" d="M82 93.8c1.4 0 2.6 1.2 2.6 2.6S83.4 99 82 99s-2.6-1.2-2.6-2.6 1.2-2.6 2.6-2.6z" fill="#000000" stroke-width="none" opacity="1"></path><path id="SvgjsPath7567" d="m81.3 94.3-.5-.5c-.2-.2-.4-.3-.7-.3s-.5.1-.7.3c-.2.2-.3.4-.3.7s.1.5.3.7l.5.5c.2.2.4.3.7.3.2 0 .5-.1.7-.3.4-.5.4-1 0-1.4zm2.5 4.4c.8 0 .8-1.3 0-1.3s-.9 1.3 0 1.3z" fill="#ffffff" stroke-width="none" opacity="1"></path></g></g></g><g id="svga-group-eyesfront-left"><path id="SvgjsPath7611" d="M70.7 98c0 6.9 4.9 12.5 11 12.5s11-5.6 11-12.5-4.9-12.5-11-12.5-11 5.6-11 12.5zm1.2.4s1.4-2.6 3.4-3.6 4.1-2.6 8.6-1.9c4.5.7 7.2 3.6 8.2 5.1 0 0-3.5 2.7-5.9 3.2-2.4.5-6.1.8-9.4-.1-3.2-.9-4.9-2.7-4.9-2.7z" fill="#f3d4cf" stroke-width="none" opacity="1" stroke="none"></path><path id="SvgjsPath7612" d="M91 96.6s-2.7-3.5-7.8-3.9c-5.1-.5-9.4 2.8-11.3 5.7 0 0-2 .5-3.3-.7 0 0 2 .1 4.3-2.1 2.1-2.1 5.6-4 9.8-3.4 4.5.5 6.4 1.8 8.3 4.4z" fill="#e4b3ab" stroke-width="none" opacity="1" stroke="none"></path><path id="SvgjsPath7613" d="M69.9 95.9c-.1-.1 0-.2.1-.2 1.2.7 2.2.7 3.3.2.4-.5.9-.9 1.4-1.3-1 0-2-.4-2.6-1.2-.1-.1.1-.2.1-.1.9.7 1.9 1.1 2.9 1 .6-.4 1.1-.7 1.8-1-.6-.3-1.1-.8-1.3-1.5 0-.1.1-.2.2-.1.4.6.9 1.1 1.6 1.4.7-.3 1.4-.5 2.1-.6-.1-.1-.2-.1-.2-.2-.2-.3-.5-.7-.5-1.1 0-.1.2-.2.3-.1.2.3.2.6.4.9.1.2.2.3.4.4 4.8-.7 10.1 1.5 12.6 6 .1.2-.2.4-.3.2-2.3-3.5-6.2-5.7-10.5-5.5-3.9.2-7.1 2.4-9.6 5.4 6.2 4.1 13.4 4 19.5-.2.1-.1.3.1.1.2-3.1 2.8-7.2 4-11.1 3.8-.1.1-.2.3-.2.4-.1.2-.1.3-.2.5-.1.1-.2.1-.2-.1 0-.3.1-.6.3-.9-.8-.1-1.6-.2-2.4-.4-.1.1-.3.2-.4.4-.1.2-.2.4-.4.6-.1.1-.2 0-.2-.1 0-.3.2-.5.3-.7.1-.1.2-.2.2-.3-.6-.2-1.3-.4-1.9-.7-.2.1-.4.2-.6.4l-.6.6c-.1.1-.2 0-.2-.1.2-.4.6-.8 1.1-1-.6-.3-1.2-.6-1.7-1-.2.1-.4.1-.6.3-.3.2-.5.4-.8.6-.1.1-.2 0-.2-.1.2-.5.8-.8 1.3-1-.4-.3-.9-.6-1.3-1l-.1.1c-.1.1-.3 0-.2-.2 0 0 0-.1.1-.1 0-.1 0-.1.1-.2.3-.6.6-1.2 1-1.8-1 .4-2.1.1-2.9-.6z" fill="#000000" stroke-width="none" opacity="1" stroke="none"></path></g></g></g><g id="svga-group-eyes-right-move" transform="matrix(1,0,0,1,0,0)"><g id="svga-group-eyes-right"><g id="svga-group-eyesback-right"><path id="SvgjsPath7604" d="M107.9 98.1s3.5 2.7 5.9 3.2c2.4.5 6.1.8 9.4-.1 3.2-1 4.9-2.8 4.9-2.8s-1.4-2.6-3.4-3.6-4.1-2.6-8.6-1.9-7.3 3.7-8.2 5.2z" fill="#ffffff" stroke-width="none" opacity="1"></path></g><g id="svga-group-eyesiriswrapper-right" transform="matrix(1,0,0,1,0,0)"><g id="svga-group-eyesiriscontrol-right" transform="matrix(1,0,0,1,0,0)"><g id="svga-group-eyesiris-right"><path id="SvgjsPath7568" d="M118 91.5c2.7 0 4.9 2.2 4.9 4.9s-2.2 4.9-4.9 4.9-4.9-2.2-4.9-4.9 2.2-4.9 4.9-4.9z" fill="#4e60a3" stroke-width="none" opacity="1"></path><path id="SvgjsPath7569" d="M118 93.8c1.4 0 2.6 1.2 2.6 2.6S119.4 99 118 99s-2.6-1.2-2.6-2.6 1.2-2.6 2.6-2.6z" fill="#000000" stroke-width="none" opacity="1"></path><path id="SvgjsPath7570" d="m117.4 94.3-.5-.5c-.2-.2-.4-.3-.7-.3s-.5.1-.7.3c-.2.2-.3.4-.3.7s.1.5.3.7l.5.5c.2.2.4.3.7.3.2 0 .5-.1.7-.3.3-.5.4-1 0-1.4zm2.4 4.4c.8 0 .8-1.3 0-1.3s-.8 1.3 0 1.3z" fill="#ffffff" stroke-width="none" opacity="1"></path></g></g></g><g id="svga-group-eyesfront-right"><path id="SvgjsPath7614" d="M118.3 85.5c-6.1 0-11 5.6-11 12.5s4.9 12.5 11 12.5 11-5.6 11-12.5-5-12.5-11-12.5zm4.9 15.7c-3.2 1-7 .6-9.4.1-2.4-.5-5.9-3.2-5.9-3.2.9-1.5 3.6-4.4 8.2-5.1 4.5-.7 6.7.9 8.6 1.9 2 1 3.4 3.6 3.4 3.6s-1.7 1.7-4.9 2.7z" fill="#f3d4cf" stroke-width="none" opacity="1" stroke="none"></path><path id="SvgjsPath7617" d="M109 96.6s2.7-3.5 7.8-3.9c5.1-.5 9.4 2.8 11.3 5.7 0 0 2 .5 3.3-.7 0 0-2 .1-4.3-2.1-2.1-2.1-5.6-4-9.8-3.4-4.5.5-6.4 1.8-8.3 4.4z" fill="#e4b3ab" stroke-width="none" opacity="1" stroke="none"></path><path id="SvgjsPath7618" d="M130.1 95.9c.1-.1 0-.2-.1-.2-1.2.7-2.2.7-3.3.2-.4-.5-.9-.9-1.4-1.3 1 0 2-.4 2.6-1.2.1-.1-.1-.2-.1-.1-.9.7-1.9 1.1-2.9 1-.6-.4-1.1-.7-1.8-1 .6-.3 1.1-.8 1.3-1.5 0-.1-.1-.2-.2-.1-.4.6-.9 1.1-1.6 1.4-.7-.3-1.4-.5-2.1-.6.1-.1.2-.1.2-.2.2-.3.5-.7.5-1.1 0-.1-.2-.2-.3-.1-.2.3-.2.6-.4.9-.1.2-.2.3-.4.4-4.8-.7-10.1 1.5-12.6 6-.1.2.2.4.3.2 2.3-3.5 6.2-5.7 10.5-5.5 3.9.2 7.1 2.4 9.6 5.4-6.2 4.1-13.4 4-19.5-.2-.1-.1-.3.1-.1.2 3.1 2.8 7.2 4 11.1 3.8.1.1.2.3.2.4.1.2.1.3.2.5.1.1.2.1.2-.1 0-.3-.1-.6-.3-.9.8-.1 1.6-.2 2.4-.4.1.1.3.2.4.4.1.2.2.4.4.6.1.1.2 0 .2-.1 0-.3-.2-.5-.3-.7-.1-.1-.2-.2-.2-.3.6-.2 1.3-.4 1.9-.7.2.1.4.2.6.4l.6.6c.1.1.2 0 .2-.1-.2-.4-.6-.8-1.1-1 .6-.3 1.2-.6 1.7-1 .2.1.4.1.6.3.3.2.5.4.8.6.1.1.2 0 .2-.1-.2-.5-.8-.8-1.3-1 .4-.3.9-.6 1.3-1l.1.1c.1.1.3 0 .2-.2 0 0 0-.1-.1-.1 0-.1 0-.1-.1-.2-.3-.6-.6-1.2-1-1.8 1 .4 2.1.1 2.9-.6z" fill="#000000" stroke-width="none" opacity="1" stroke="none"></path></g></g></g><g id="svga-group-facehighlight-single"></g><g id="svga-group-eyebrows-left-move" transform="matrix(1,0,0,1,0,0)"><g id="svga-group-eyebrows-left-rotate" transform="matrix(1,1.7453292519943295e-9,-1.7453292519943295e-9,1,1.5003287501258455e-7,-1.402671330197336e-7)"><g id="svga-group-eyebrows-left"><path id="SvgjsPath7661" d="M68.8 86s.1 0 0 0c.1-.1.1-.1.1-.2.3-.6.9-1 1.4-1.3.6-.4 1.3-.9 1.9-1.3h.1c1.5-1.1 4-1.3 6-.8 1.9.2 3.8.8 5 1.3.1 0 .2.1.4.1 1.6.3 3.3.6 4.8 1.2 1.5.3 3 .5 4.4 1h.1c.1-.1.4 0 .4.2.1.2.1.4 0 .7.2 0 .3.1.3.3-.1.5-.3.9-.6 1.3v.1c-.3.8-.9 1.1-1.8 1-.1 0-.2 0-.4-.1-.1.1-.2.1-.3.1-1.6-.1-3.2-.8-4.6-1.4-.9-.4-1.9-.8-2.8-1.3-1.4-.2-2.8-.6-4.2-.9-1.3-.3-2.8-.3-4-.8-.4.1-.9.1-1.3.2-.3.1-.6.2-1 .2-1 .3-2.2.8-3.2.9h-.1c-.1 0-.1.1-.2.1-.2.2-.4.4-.7.5-.1 0-.3-.1-.3-.2 0-.5.3-.7.6-.9z" fill="#2a232b" stroke-width="none" opacity="1"></path><path id="SvgjsPath7662" d="M89.9 85.4c1.3.8 1.5 2.8 1.3 4.2 0 .3-.5.3-.6 0-.2-.7-.2-1.4-.3-2.1-.2-.6-.4-1.1-.7-1.7-.1-.3.1-.6.3-.4zm-3.2-.9c2.1.4 3.4 2.9 3.6 4.8 0 .2-.3.2-.3.1-.2-1-.6-1.9-1.2-2.7-.6-.8-1.4-1.3-2.2-2-.1-.1 0-.3.1-.2zM81 83.1c.9.2 1.9 1 2.6 1.7.7.7 1.3 1.5 1.5 2.4 0 .2-.2.3-.3.2-.5-.8-.9-1.6-1.7-2.2-.7-.6-1.6-1-2.2-1.8-.1-.2-.1-.3.1-.3zM76.3 82c2.3 0 4.7 2.1 5.4 4.2.1.2-.2.3-.3.1-.6-.9-1.2-1.8-2.1-2.5-.9-.7-1.9-1-3-1.4-.3-.1-.3-.4 0-.4zm-5.6 2.4c2.1-2.7 6.2-1.8 7.9.8.1.2-.2.4-.3.2-1-.9-2.1-1.9-3.5-2-1.5-.2-2.7.8-3.9 1.3-.3.1-.3-.2-.2-.3z" fill="#3a353a" stroke-width="none" opacity="1"></path><path id="SvgjsPath7663" d="M92.1 90.3c1.6-.4 2-2.2 2-3.7 0-.3-.4-.3-.5-.1-.2.6-.4 1.3-.7 1.8-.3.5-.7.8-1.1 1 .4-1.2.2-2.6-.6-3.7.6.1 1.1.3 1.7.4.2 0 .3-.2.1-.3-2.7-1-5.6-1.6-8.3-2.4-2.4-.7-4.9-1.4-7.3-1.7-4.6-.6-7.6 2.4-10.3 5.7-.1.1-.2.2-.3.2-.4.3 0 .9.4.6 2.5-1.5 5-2.4 7.9-2.4 3.1.1 6.2 1.1 9.2 2.1 1.6.6 3.1 1.2 4.6 1.8 1 .6 2.1 1 3.2.7zm-20-6.8c1-.7 2.1-1 3.1-1.1.8.4 1.6.8 2.3 1.4.5.5.9 1.1 1.3 1.6-.1 0-.2-.1-.4-.1-3.4-.7-6.6-.4-9.5 1 1-1 2-2 3.2-2.8zm19.3 6c-.5 0-1.1-.1-1.7-.3-1.2-.4-2.4-1-3.6-1.5-.2-.1-.4-.1-.6-.2 0-.9-.3-1.8-.9-2.4-.1-.1-.3 0-.2.2.3.7.7 1.4.9 2.1-.8-.3-1.5-.6-2.3-.8-.7-1.5-2.1-3.1-3.6-3.8-.2-.1-.3.2-.2.3.6.6 1.3 1 1.9 1.7.5.5.9 1.1 1.3 1.7-1-.3-1.9-.6-2.9-.8-.2-.8-.9-1.6-1.5-2.1-.4-.4-1-.8-1.5-1.1.9 0 1.9.1 2.8.3 3.8.8 7.6 1.9 11.4 2.8.8 1.2 1 2.5.7 3.9z" fill="#1b141c" stroke-width="none" opacity="1"></path></g></g></g><g id="svga-group-eyebrows-right-move" transform="matrix(1,0,0,1,0,0)"><g id="svga-group-eyebrows-right-rotate" transform="matrix(1,1.7453292519943295e-9,-1.7453292519943295e-9,1,1.5032446754048578e-7,-2.0871141259704018e-7)"><g id="svga-group-eyebrows-right"><path id="SvgjsPath7664" d="M131.2 86s-.1 0 0 0c-.1-.1-.1-.1-.1-.2-.3-.6-.9-1-1.4-1.3-.6-.4-1.3-.9-1.9-1.3h-.1c-1.5-1.1-4-1.3-6-.8-1.9.2-3.8.8-5 1.3-.1 0-.2.1-.4.1-1.6.3-3.3.6-4.8 1.2-1.5.3-3 .5-4.4 1h-.1c-.1-.1-.4 0-.4.2-.1.2-.1.4 0 .7-.2 0-.3.1-.3.3.1.5.3.9.6 1.3v.1c.3.8.9 1.1 1.8 1 .1 0 .2 0 .4-.1.1.1.2.1.3.1 1.6-.1 3.2-.8 4.6-1.4.9-.4 1.9-.8 2.8-1.3 1.4-.2 2.8-.6 4.2-.9 1.3-.3 2.8-.3 4-.8.4.1.9.1 1.3.2.3.1.6.2 1 .2 1 .3 2.2.8 3.2.9h.1c.1 0 .1.1.2.1.2.2.4.4.7.5.1 0 .3-.1.3-.2 0-.5-.3-.7-.6-.9z" fill="#2a232b" stroke-width="none" opacity="1"></path><path id="SvgjsPath7665" d="M110.1 85.4c-1.3.8-1.5 2.8-1.3 4.2 0 .3.5.3.6 0 .2-.7.2-1.4.3-2.1.2-.6.4-1.1.7-1.7.1-.3-.1-.6-.3-.4zm3.2-.9c-2.1.4-3.4 2.9-3.6 4.8 0 .2.3.2.3.1.2-1 .6-1.9 1.2-2.7.6-.8 1.4-1.3 2.2-2 .1-.1 0-.3-.1-.2zm5.7-1.4c-.9.2-1.9 1-2.6 1.7-.7.7-1.3 1.5-1.5 2.4 0 .2.2.3.3.2.5-.8.9-1.6 1.7-2.2.7-.6 1.6-1 2.2-1.8.1-.2.1-.3-.1-.3zm4.7-1.1c-2.3 0-4.7 2.1-5.4 4.2-.1.2.2.3.3.1.6-.9 1.2-1.8 2.1-2.5.9-.7 1.9-1 3-1.4.3-.1.3-.4 0-.4zm5.6 2.4c-2.1-2.7-6.2-1.8-7.9.8-.1.2.2.4.3.2 1-.9 2.1-1.9 3.5-2 1.5-.2 2.7.8 4 1.3.2.1.2-.2.1-.3z" fill="#3a353a" stroke-width="none" opacity="1"></path><path id="SvgjsPath7666" d="M111.1 89.8c1.5-.6 3.1-1.2 4.6-1.8 2.9-1 6.1-2.1 9.2-2.1 2.9-.1 5.5.9 7.9 2.4.4.2.8-.4.4-.6-.1-.1-.2-.2-.4-.2-2.7-3.3-5.7-6.2-10.3-5.7-2.5.3-4.9 1.1-7.3 1.7-2.8.8-5.6 1.4-8.3 2.4-.2.1-.1.3.1.3.6-.1 1.1-.2 1.7-.4-.8 1-1 2.5-.6 3.7-.4-.1-.8-.4-1.1-1-.3-.6-.4-1.2-.7-1.8-.1-.2-.5-.2-.5.1.1 1.4.5 3.2 2 3.7 1.2.1 2.3-.3 3.3-.7zm19.9-3.5c-3-1.4-6.2-1.7-9.5-1-.1 0-.2.1-.4.1.4-.5.8-1.1 1.3-1.6.7-.6 1.5-.9 2.3-1.4 1.1.1 2.1.5 3.1 1.1 1.3.8 2.3 1.8 3.2 2.8zm-21.6-.7c3.8-.9 7.6-2 11.4-2.8 1-.2 1.9-.3 2.8-.3-.6.3-1.1.7-1.5 1.1-.6.5-1.3 1.3-1.5 2.1-1 .2-2 .5-2.9.8.4-.6.8-1.2 1.3-1.7.6-.6 1.3-1.1 1.9-1.7.1-.1 0-.3-.2-.3-1.5.6-2.9 2.2-3.6 3.8-.8.2-1.6.5-2.3.8.2-.7.5-1.4.9-2.1.1-.2-.1-.3-.2-.2-.6.6-.9 1.6-.9 2.4-.2.1-.4.1-.6.2-1.2.5-2.4 1.1-3.6 1.5-.6.2-1.2.4-1.7.3-.4-1.4-.2-2.7.7-3.9z" fill="#1b141c" stroke-width="none" opacity="1"></path></g></g></g><g id="svga-group-nose-single-move" transform="matrix(1,0,0,1,0,0)"><g id="svga-group-nose-single"><path id="SvgjsPath7647" d="M97.72 89.37c-.8 3.33-.91 6.89-1.27 10.29-.38 3.64-1.08 7.4-1.03 11.06 0 .29.45.37.52.07.74-3.34.83-6.91 1.18-10.31.37-3.64 1.05-7.41.93-11.06 0-.19-.28-.24-.33-.05z" fill="#c5796d" stroke-width="none" opacity="1" transform="translate(0 2)" stroke="none"></path><path id="SvgjsPath7648" d="M94.71 108.8c-.98 1.31-1.8 2.73-2.52 4.2-.46.95-1.04 2.07-.73 3.16.5 1.8 2.79 2.36 4.28 1.51.44-.26.24-.95-.26-.95-.87-.01-1.89.27-2.58-.47-.84-.89-.01-2.5.36-3.4.55-1.32 1.22-2.59 1.74-3.92.07-.19-.19-.26-.29-.13z" fill="#c5796d" stroke-width="none" opacity="1" transform="translate(0 2)" stroke="none"></path><path id="SvgjsPath7649" d="M94.57 116.21c2.7-.2 3.21 3.2 5.78 3.28 2.2.07 2.37-3.24 4.46-3.14.24.01.32-.33.12-.45-2.37-1.4-2.81 2.72-4.99 2.46-1.29-.15-2.21-2.05-3.37-2.6-.79-.37-1.36-.34-2.13.01-.19.11-.09.46.13.44z" fill="#c5796d" stroke-width="none" opacity="1" transform="translate(0 2)" stroke="none"></path><path id="SvgjsPath7650" d="M104.07 117.75c1.78.4 3.85-.15 4.27-2.13.21-.99-.12-1.97-.64-2.81-.84-1.37-1.93-2.53-2.73-3.95-.13-.24-.47-.12-.48.13-.1 1.59 1.08 2.69 1.92 3.92.78 1.13 1.45 2.69.14 3.81-.6.51-1.74.42-2.48.56-.24.05-.23.42 0 .47z" fill="#c5796d" stroke-width="none" opacity="1" transform="translate(0 2)" stroke="none"></path><path id="SvgjsPath7651" d="M102.32 112.41c-.39-.7-1.4-.81-1.96-.25-.05.05-.23.28-.28.34-.06.08-.19.25-.21.28-.06.1-.12.2-.17.3l-.11.26c0-.01-.01.01-.03.05-.06.06-.12.13-.17.19-.17.18-.34.36-.48.57-.4.63-.08 1.35.46 1.75.83.62 2.03.12 2.61-.58.7-.84.89-1.92.34-2.91z" fill="#fbe5e2" stroke-width="none" opacity="1" transform="translate(0 2)" stroke="none"></path></g></g><g id="svga-group-hair-front"><path id="SvgjsPath7790" d="M162.6 57.4c-.2-2.8-1.3-5.7-3.2-7.7.2-3-.9-6-3.1-8.3-.4-.4-.9-.8-1.3-1.1-.9-1.8-2.4-3.4-4-4.6-2.8-6.5-8.6-12-15.2-9.1-3.9-2.5-10.2-2.3-11.8 2.4-4.2 1.4-7.5 5.5-7.3 9.7-5.3-2.4-12.3-1.5-17.2 1.5-4.3-2.8-10.1-3.6-15.5-2.6-.3-2.7-1.5-5.3-3.7-7.1-.8-3-3-5.8-6.1-7-4.3-1.8-8.6-1-12.3 1.2-3.5 1.2-6.6 3.9-8 7.2-1.5.5-2.8 1.3-4 2.3-.6.5-1.1 1.1-1.6 1.7h-.1c-4.3 2.4-7.3 7.2-6.4 12.3 0 .3.1.6.2.9-.1.2-.2.5-.3.7-3.2 3-5.6 6.7-4.8 11.3.4 2.7 2.1 5.1 4.5 6.1.2.3.5.6.7.9 1.1 1.1 2.6 1.7 4 1.6 1.2 1.4 2.9 2.4 4.9 2.7 1.1.2 2.2.1 3.2-.2-.8 6.8.5 14.1 3.9 18.7.1.2.3.2.4.1.7 1.3 1.4 2.6 2.2 3.8-.1.9-.4 1.9-.8 3-.3.9-.5 1.7-.4 2.7.2 2.8 2.4 4.9 2.8 7.7 0 .2.4.2.4 0 .6-3.5-2.2-6.4-1.2-9.9.4-1.4.8-2.7.8-3.9.4-2 0-4.4-.6-6.6.3-.1.5-.4.4-.7-.1-.2-.1-.5-.2-.7.2.2.8.2.7-.2-.1-1-.3-1.9-.5-2.9v-.6c.1-.1.2-.3.2-.5-.1-.7-.2-1.4-.4-2.1.1.1.3.1.5.1.1.1.1.2.2.3.2.3.6 0 .5-.3-.1-.3-.2-.5-.3-.8v-.6c.4.2.9-.1.8-.6-.1-.4-.2-.8-.4-1.2.3.2.7-.1.6-.5l-.3-1.2c.5.2 1.1-.2.9-.8l-.3-.9.4.4c.3.3.8-.2.7-.5 0-.1-.1-.2-.1-.4.7.3 1.4-.6 1.1-1.3-.2-.5-.5-1.1-.7-1.6.1.1.1.2.2.3.2.3.7.1.6-.2 0-.1-.1-.2-.1-.3.1.2.3.3.4.4.4.4 1.2 0 1.1-.5.7.4 1.6-.3 1.2-1.2-.3-.7-.7-1.4-1-2.1l1.2 1.5c.1.2.3.2.4.2.1.1.2.2.3.4.4.4 1.2-.1.8-.6-.5-.7-1-1.4-1.5-2.2-.1-.1-.1-.2-.2-.3.2.2.3.5.5.7.2.2.5.3.7.2.3.1.8-.3.5-.7-.1-.1-.1-.2-.2-.4.5.4 1 .7 1.5 1 .5.3 1.3-.3.9-.9-.2-.2-.4-.5-.5-.7.2 0 .4-.2.4-.4.2.1.5.2.7.3.7.2 1.1-.7.7-1.1-.3-.3-.6-.6-.9-.8.7.3 1.3.5 2 .6.6.1.9-.6.4-1-.1-.1-.2-.2-.4-.3.4.1.8.2 1.1.3.7.1 1-.7.4-1.1h.2c.2 0 .3 0 .4-.1.2.2.4.3.6.5.7.6 1.8-.4 1.1-1.1-.1 0-.1-.1-.2-.2.3.3.7.5 1 .8.4.3.9-.4.6-.8l-.6-.6c.5.1 1 .2 1.4.3h.2c-1.2 1-2.2 2.5-2.5 4-.1.3.4.5.5.2.8-1.6 1.8-3 3.4-3.9.9-.5 1.8-.7 2.6-.8h.5c-1.7 1.5-3 3.7-3.4 6-.3 1.9 0 3.7.3 5.5 0 3.4.5 7 .2 10 0 .2.3.2.3 0 .7-2.2.8-4.4.8-6.7.5-2 .2-3.9.2-5.8.3-2.4 1-4.6 2.7-6.7 0 0 .1-.1.1-.2 1.3-1.2 2.8-1.7 4.4-1.9-.6.3-1.1.7-1.5 1-1.8 1.6-2.9 4.2-3.2 6.7-.8 3.6-.7 7.5-1.1 10.9 0 .2.3.2.3 0 1.5-3.9 1.7-12 4.5-16 1.8-1.9 4.2-2.4 6.7-1.8h.3c.1 0 .2 0 .2.1h.2c.2.1.3.1.5.2.3.4.9.6 1.5.3.1.2.3.2.4.1 2.8-1.8 7.9-2.5 8.6 2 .4 2.4-1.3 4.6-.7 7.1.1.2.4.2.5 0 .7-3.5 3.4-7.3.3-10.4h.1c.5-.1 1-.2 1.6-.3-.2.5.3 1.2.9 1 1.1-.2 2.4-.6 3.7-.9l-.9.6c-.8.5-.3 2.1.7 1.7l3.6-1.5c-.6.4-1.3.8-1.9 1.3-.6.4-.1 1.2.6 1 .4-.2.9-.4 1.3-.6.1.3.4.6.8.5.1 0 .2 0 .2-.1-.2.6.2 1.3.9 1 1-.4 1.8-.9 2.7-1.5-.5.6-1.1 1.2-1.6 1.8-.6.6.2 1.6.9 1.2h.1l-.2.2c-.5.5.2 1.4.8 1 .6-.3 1.2-.7 1.7-1.1-.1.2-.3.4-.4.6-.4.6.4 1.1 1 .7h.1c-.1.6.6 1.1 1.2.6.5-.5 1.1-1 1.7-1.6-.5.6-1.1 1.3-1.7 1.9-.5.5.2 1.5.8 1.1.8-.5 1.6-1.2 2.4-1.9-.6 1.1-1.2 2.1-1.7 3.2-.3.6.4 1.3 1 .8s1.1-1.1 1.6-1.7c-.5.8-1 1.5-1.3 2.3-.2.5.2 1 .7.7.2-.1.4-.2.6-.4.1.5.8.8 1.2.3 1.5-1.7 2.8-3.4 3.9-5.5.1-.2.2-.3.3-.5-.3.7-.6 1.5-.9 2.2-1 2.1-2.4 4-3.9 5.8-.4.5.1 1.5.8 1 .9-.7 1.8-1.5 2.6-2.5-.9 1.7-2 3.2-3.2 4.6-.5.6.3 1.4.9.9 1.2-1 2.3-2.2 3.1-3.5-.7 1.8-1.5 3.5-2.4 5.3-.3.5.4 1.1.8.6 1.1-1.2 2.1-2.7 3-4.2-.7 1.7-1.4 3.3-2.2 4.9-.2.4.2.9.6.8-.2.3-.4.5-.6.8-.4.6.4 1.1.9.7.4-.3.9-.8 1.3-1.2-.5 1-.9 2-1.2 3.1-.2.6.6 1 1 .6.1-.1.1-.2.2-.2-.4.8-.7 1.6-1.1 2.4-.2.5.2.9.6.7-.1.3-.1.5-.2.8-.1.3-.3.6-.4.9-.1.3-.1.7.2.9v.2c-.5 2.2-.6 4.5-.2 6.7 0 .1.1.2.1.2v.6c-.4 1.8-.4 3.6-.1 5.5.6 3.6 2 6.2 1 10-.7 2.6-1.4 4-.4 6.6.1.2.4.2.4-.1-1.1-4.6 2.4-8.1 1.8-12.6-.3-2.3-1.3-4.5-1.2-6.9.1-1.8.6-3.4 1.2-5.1 1.2-1.3 2.1-3.4 2.5-5.3 2.1-4 3.8-8.5 4.2-12.9 1.7.3 3.6-.3 4.8-1.6 1.1-1 1.7-2.4 2-3.9.5-.5.9-1.1 1.3-1.8 2.1 1 4.1-.4 5.4-2.4 3.6-1.8 3.9-7.6 3.5-11.1zm-122.2-1c-.4 1.6-.6 3.1-.5 4.6-.5-1.7-.2-3.6.5-5.5v.9zM45.8 44c0-.4.1-.8.2-1.2v1c0 .1-.1.1-.2.2zm3.4-5.7c0 .1-.1.1-.1.2.1-.2.2-.5.4-.7-.2.2-.3.4-.3.5zm10.1 50.1c-.1-.3-.3-.7-.4-1 .2.3.3.6.4 1zm.6-3.2c.1.3.2.6.4.8.1.5.3.9.4 1.4-.3-.7-.6-1.5-.8-2.2zm2.3-54.8h-1.3.1c.5-.1 1.1-.2 1.6-.2-.2 0-.3.1-.4.2zm3.9-3.4c-.5-.1-1-.1-1.5-.1.3 0 .6-.1.9-.1h.6v.2zm10.3 4.5c-.2 0-.3-.1-.5-.1 0-.1 0-.1-.1-.2l.6.3zm-1.6-4.1c-.2 0-.4-.1-.6-.1-.2-.3-.5-.6-.8-.8.5.3 1 .6 1.4.9zm-2-1.2c-.2 0-.3-.1-.5-.1l-.1-.1c.2.1.4.1.6.2zm9.3 33.5v-.2c.3.1.5-.1.5-.3.1 0 .1 0 .2.1-.2.1-.5.2-.7.4zm10.2-6.3c.2.1.3.2.5.2-.1 0-.3-.1-.5-.2zm4.4-10c-.1 0-.2-.1-.2-.1h.3s0 .1-.1.1zm11.8-1.1s0-.1 0 0c0-.1 0-.1 0 0 0-.1 0 0 0 0zm14.2-10.4c-.8.3-1.7.8-2.4 1.4.8-1.2 1.9-2.1 3.1-2.8-.3.4-.5.9-.7 1.4zm2.5-.5c.1-.2.2-.3.3-.4-.1.1-.2.3-.3.4zm5.6-3.3c-.9-.4-2-.5-2.9-.5-.2 0-.4.1-.7.1 1-.6 2.2-.8 3.4-.6.5.1 1 .2 1.4.4-.3.1-.8.3-1.2.6zm4.7 5.5c-.3-.3-.5-.7-.9-1v-.1s.1 0 .1.1c.4.3.7.6 1 1-.1-.1-.2-.1-.2 0zm1.2 61.2zm.3-1-.1.1v-.2c.1 0 .1 0 .1.1zm3.2-62.4c-.5-.5-1.1-.9-1.7-1.3.8.4 1.6.8 2.4 1.3h-.7zm2.9-1.9c-.5-.3-1-.6-1.6-.9 1.3.5 2.5 1.4 3.6 2.4-.6-.6-1.3-1.1-2-1.5zm2.6 46.7v-.6c.9 0 1.7-.1 2.5-.4-.7.7-1.6 1.1-2.5 1zm8.6-16c-.3-1.4-.6-2.9-1.1-4.4 0-.3-.1-.5-.1-.8.4.8.6 1.7.9 2.6 0 .3.2 1.4.3 2.6zm1.6-15.3v-.1c.1.2.2.3.3.5-.1-.1-.2-.3-.3-.4z" fill="#2a232b" stroke-width="none" opacity="1" stroke="none"></path><path id="SvgjsPath7791" d="M151.8 70.8c-.5 1.7-1.6 3.3-3.6 3.5-1.9.3-3.6-.8-4.4-2.5v-1.4c0-.1 0-.1-.1-.1 1.9 1.3 4.1 1.8 5.8-.6.2-.3-.2-.6-.4-.3-4.1 3.9-9.4-4.6-10.9-7.3-2-3.5-3-7.3-2.6-11.4 0-.3-.5-.4-.6-.1-.1.6-.2 1.2-.2 1.7-.2-1.2-.4-2.5-.4-3.7h.9c.1.7.4 1.5.9 2.1.8 2.4 2.6 4.4 5 5.1 2.4.7 5.4-.3 5.4-3.2-.1-4.5-7.4-12.7-11.6-8.5.9-3.1 3.2-5.6 7.1-6.2 1.6 1.7 3 3.6 4.2 5.6 1.2 2.1 2.2 4.3 3 6.6 1.1 3.3 3.4 13.6-4.6 12.1-.4-.1-.6.5-.2.6 7.6 2.7 7.2-7.8 5.9-12.3-1.4-4.8-3.9-9.3-7.3-12.9.2-.2.2-.5-.1-.6h-.4c-1.9-1.9-4.1-3.6-6.4-5-.2-.1-.4.2-.2.3 1.9 1.4 3.6 2.8 5.2 4.4-6.1-.4-9.9 4.6-9.9 9.8-1.9-.9-3.7-2.2-4.9-4.2-2-3.1-3.5-10.3 1.9-11 .2 0 .2-.3 0-.3-4.9.4-5.3 5.8-3.9 9.5 1.2 3.4 3.8 6 7 7.2v.1c-7.2-.2-13.1-6.7-10.7-14.5.1-.3-.4-.4-.5-.1-1.5 4.5-.3 8.9 2.4 11.9-2.3-1.8-4.1-4-5.1-7-.1-.3-.6-.2-.5.2.1.4.2.7.3 1.1-2.3-1.4-5.3-1.9-7.9-.9-.3.1-.3.7.1.7 2.8-.4 5.2-.3 7.8 1.1.1.1.2.1.3 0 .2.4.3.7.5 1.1-3.9-1.5-8.6-1.5-12.4.3-.4.2-.1.8.3.7 4.2-1.1 7.8-1.4 12-.3.2 0 .3 0 .3-.1.7 1.2 1.6 2.4 2.6 3.3-.7-.1-1.6-.3-2.2-.1-.3.1-.2.5 0 .6.4.1.8.1 1.2.2h1.3c.1 0 .2-.1.2-.2.9.7 1.8 1.3 2.9 1.7.2 0 .3 0 .3-.1.4.3.9.5 1.3.8-2.4-.4-5 .3-7.2 1.3-.2.1-.1.5.2.4 2.6-.7 5.1-.7 7.7-.8.2 0 .3-.2.3-.4 1.4.5 2.9.7 4.5.6.4 1.9 1.4 3.8 3.1 5.2 0 0 .1 0 .1.1.1.2.1.4.2.6v.1l-.1-.1c-1.3-.4-2.4-.6-3.5-1.4-1.2-.8-2.1-2-2.6-3.4-.1-.3-.5-.2-.4.1.1.2.1.5.2.7-1.4-.2-3.1-.3-4.3.4-.3.2-.2.7.2.6 1.4-.1 2.8-.4 4.2-.4.1 0 .2 0 .2-.1 1 2.1 3.1 4.1 5.5 4.2-1.7 1.6-3.3 3.3-4.9 5-.2.2.1.5.3.3 1.8-1.6 3.4-3.3 5-5.1.1-.1.1-.2 0-.2h.1c.1 0 .2-.1.3-.2.2 1.4.5 2.7 1 4-.8 2.5-2 4.6-3.5 6.7-.2.2.2.5.4.3 1.7-1.6 2.9-3.9 3.4-6.2.3.7.7 1.5 1.1 2.2-.6 1.4-1.2 2.8-1.9 4.2-.8 1.5-1.7 2.8-2.5 4.2-.2.3.3.7.6.4 2-2.1 3.6-5 4.4-7.9.4.6.7 1.1 1.1 1.7-1.2 2.5-2.4 5.1-3.3 7.8-.1.3.4.5.5.2 1.2-2.4 2.2-5 3.2-7.5.2.3.5.7.7 1-.2-.1-.4-.1-.4.2-.4 3.1-1.5 5.7-2.8 8.4-.2.4.3.7.6.3 1.9-2.5 2.6-5.6 2.8-8.7v-.1c.1.1.2.2.3.4.6.7 1.3 1.6 2.2 2.3-.3 2.8-1 5.3-1.9 7.9-.1.3.3.5.5.2 1.2-2.4 2-5 2.1-7.6.1.1.2.2.4.3-.1 0-.3 0-.3.2-.4 4.1-1.3 7.5-2.8 11.3-.1.3.4.6.6.2 1.6-2.7 2.4-6 2.6-9.1.1.2.2.3.3.5l-.1.1c-.9 6.1-2.6 11.5-5.4 17-.2.3.3.6.5.3l1.8-3c-.2.5-.4 1-.5 1.5-.1.2.3.4.4.2 1.7-3.4 2.7-7.2 3.2-11 .3-1.6.4-3.1.5-4.7 1 1 2.3 1.6 3.8 1.4 2.1-.3 3.9-2.1 4-4.3-.2-.5-.7-.5-.8-.2zm-6.5-19.6c1.3 4.2-2.7 4.7-5.4 3.1-.2-.2-.5-.3-.7-.5 2.2 1.2 5.4.6 5.6-2.3 0-.3-.4-.3-.5-.1-1 2.6-4 2.2-5.7.6-.5-.5-1.2-1.2-1.7-2.1-.1-.2-.1-.4-.1-.5 0-.2-.2-.3-.3-.3-.1-.1-.1-.3-.1-.4.3-.1.3-.6-.1-.6h-.1c-.1-.6 0-1.1.3-1.6.1-.2-.2-.5-.4-.3-.3.4-.5.8-.6 1.3-.3.1-.6.2-.9.2 0-.8.1-1.5.3-2.3 4.1-4.1 9.2 1.8 10.4 5.8zm-12.6-7.8c1.2-2.8 3.5-4.5 6.2-5.3-1.8 1-3.2 2.5-4.2 4.4-.8 1.6-1.2 3.3-1.2 5-.5-.1-1-.3-1.4-.5 0-1.2.1-2.4.6-3.6zm-.4 5.5c.4-.1.8-.2 1.2-.2.1 1.4.4 2.9.8 4.3-.9-1.3-1.6-2.6-2-4.1zm27.8 7c-.1-.3-.6-.2-.6.1.1 4.1.4 11.3-5.4 11.4 2.6-2.8 2.1-8.7 1.7-11.8-1.2-9.5-7.1-18.7-15.8-22.9-.3-.1-.5.2-.2.4 5.6 3.5 10.1 8 12.8 14 1.5 3.3 2.4 6.9 2.6 10.5.1 1.2 0 2.3-.1 3.5-.1 1.1-.2 2.2-.5 3.3-3.8 2.7-6.8 2.8-9.1.3-.3-.2-.7.1-.4.4 1.9 2.2 5.1 5 8.2 3 .1-.1.2-.1.3-.2l.1.1c6.7.8 7.3-7.5 6.4-12.1zm-26.6-22.5c-1.9 1.4-2.9 4.8-1 6.7.2.2.7 0 .6-.3-.4-1-.8-1.8-.7-2.8.1-1.2.6-2.3 1.4-3.1.2-.2 0-.6-.3-.5zm-8.5-1.5c.6-3.7 3.9-5.7 7.6-4.8 2.9.8 4.9 3.1 6.6 5.5.2.3.8 0 .6-.3-1.8-3.5-5.1-6.6-9.4-6.4-3.2.2-5.8 2.6-5.7 5.9 0 .3.3.3.3.1zm3.6 1.7c-1.3 2.7-.6 6.6 2.3 7.9.3.1.6-.2.4-.5-2.1-1.8-3.2-4.4-2-7.1.2-.3-.4-.7-.7-.3zm12.5 36.2c-.1.2-.2.3-.3.5-.1.1 0 .2 0 .3-1.2 3.6-2.5 7-4.1 10.5-.2.5.4.8.7.4 2.3-3.2 3.9-7.5 4.5-11.5 0-.4-.7-.6-.8-.2zm-7.1-11c-1.1 1.7-2.4 3.2-3.8 4.7-.1.2.1.4.2.2 1.5-1.3 2.8-3.1 3.9-4.8.2-.2-.1-.4-.3-.1zM77.5 44.2c-1.7 1.4-3.6 2.5-5.7 3.4-.2.1 0 .3.1.3 2.3-.8 4.5-1.9 6.3-3.5 1.5.2 3.2.5 4.6.4.1 0 .1 0 .1-.1 4.1 1.4 8.1 3 11.8 5.3.2.1.3-.2.2-.3-3.6-2.6-7.6-4.7-12-5.7h-.1c-.3-.1-.7-.2-1-.2h-.1c-.9-.1-1.8-.1-2.7-.1l.6-.6c-.1.2 0 .5.2.4 2-.1 3.9 0 5.9.2.4 0 .4-.5.1-.6-1.8-.7-4.2-.7-6.1-.1-.1 0-.1.1-.1.1.3-.3.6-.6.9-1 0 .1.1.3.3.3 1 0 2 0 3.1.1 0 .1.1.1.2.1 4.5.2 8.5 1.4 12.2 4 .2.2.4-.2.2-.4-2.2-1.7-4.8-3-7.5-3.7.1-.1.1-.4-.1-.4-2.6-.8-5.3-.8-8-.5.3-.3.5-.6.7-1 2.5-.4 4.8-.2 7.3 0 .3 0 .4-.5.1-.6-2.2-.8-4.7-.7-7-.1.3-.5.6-.9.9-1.4.1-.2-.2-.5-.4-.2-1.2 2-2.8 3.7-4.5 5.2h-.3c-.2.2-.3.5-.2.7zm5.8-4.7c3.1 0 6 0 9.1.5.3 0 .4-.3.1-.5-.9-.4-1.9-.6-2.9-.8.3 0 .6 0 .9-.1.2 0 .2-.3 0-.3-1.9-.2-3.8-.2-5.7 0-.2 0-.2.3 0 .4-.5.1-1.1.2-1.6.4-.3 0-.2.4.1.4zm32.2 4.1c.9.3 2 .3 2.9.4.3 0 .4-.5.1-.6-.9-.2-2-.5-2.9-.4-.3.1-.4.5-.1.6zm-25.1-2.7c2.4.5 4.8 1.2 7 2.2.2.1.4-.2.2-.4-2.3-1.1-4.7-1.8-7.2-2.1-.1.1-.1.3 0 .3zM39.2 61.8c-.9-2.9-.1-6.8 2.9-8.2.2-.1.1-.4-.2-.4-3.2.9-4.3 4.8-3.8 7.8.5 3.2 2.8 5.6 5.8 6.5.2.1.4-.3.2-.4-2.2-1-4.2-2.8-4.9-5.3zm14.5 7.9c-1.9.7-4 .7-5.7-.6-.3-.2-.7.2-.4.4 1.7 1.5 4.3 1.9 6.2.5.2-.1.2-.4-.1-.3zm8.8-41.6c2.9.5 5.1 2.8 5.9 5.6.1.2.3.1.3 0-.4-3.1-3-5.5-6.1-5.9-.2-.1-.3.2-.1.3zM50.2 40.2c-2.3 3.5-.5 9.3 4.3 9.1.4 0 .6-.7.1-.8-1.6-.5-3-1-4-2.5-1-1.7-.9-3.8.1-5.4.3-.5-.3-.8-.5-.4zm9 25.6c-1.1 4.2-.8 8.4 1.1 12.3.1.2.4.1.3-.1-1.3-3.9-1.7-7.9-.9-12.1.1-.3-.4-.5-.5-.1zm-3.9 3.6c-.1.8-.2 1.6-.2 2.4-.1 0-.1.1-.1.2-.5 5.1.8 10.4 4.3 14.3.2.3.7-.1.5-.4-1.6-2.4-2.8-4.7-3.5-7.3.7 2 1.8 3.8 3.2 5.4.3.3.8-.1.5-.4-2.9-4.4-4.5-8.7-4.2-14.1.1-.3-.5-.4-.5-.1zm-.7 6.3c0-.2-.3-.1-.3 0 .3 4.9 2.4 9.9 6.2 13 .2.2.5-.1.3-.3-3.2-3.7-5.5-7.6-6.2-12.7zM63.2 61l1.2-1.8c.2-.3-.2-.5-.4-.2-.1.1-.1.2-.2.2.1-.2-.1-.3-.2-.4.1-.5.3-1 .5-1.4.1-.2-.3-.4-.4-.2-.4.7-.7 1.5-.9 2.3-.7 1-1.4 2-2.2 2.9-2.1 1.7-4.5 2.7-7.3 2.8-5 .1-8.9-3.4-9.7-8.3 0-.3-.5-.2-.5.1.3 4.9 3.9 8.5 8.8 9.1 1.9.2 3.7-.1 5.4-.7-1.4.9-3.1 1.6-4.9 1.9-6.1.8-11.6-4.1-9.7-10.4.1-.2-.2-.3-.3-.1-2.2 5.1 1.1 10.4 6.4 11.4 3.5.7 6.7-.3 9.3-2.2-.3.7-.5 1.3-.6 2v-.4c0-.3-.5-.3-.5 0-.4 5.3.7 10.7 3.7 15.1.2.2.5 0 .4-.2-1.9-4.2-3.1-8.3-3.5-12.8.1 0 .2 0 .2-.1.3-1.5.6-2.9 1.2-4.3.5-.4.9-.8 1.4-1.3-.8 3-.7 6.4.5 9.2.2.4.7.1.7-.3-.6-3.5-.8-6.6-.1-10.1v-.1l.9-.9c-.2 2.4.3 4.8 1.7 6.8.2.3.7.1.6-.3-1.1-2.4-1.7-4.8-1.5-7.3zm2.1-8.9s0-.1-.1-.1v-.1c2.2-1.8 3.9-3.9 5.2-6.3v.5c0 .2.3.2.3 0 .1-.4.1-.9.1-1.3 2.7-5.7 2.7-12.5-.4-18.4-.1-.2-.6-.1-.5.2 2.2 5.4 2.5 10.8.9 15.7-.3-3.6-1.8-7.1-4.2-9.8-2.4-2.6-6.1-4.6-9.1-1.8-.3.3.1.7.4.4 4.1-3.7 8.7 2.1 10.4 5.2 1.2 2.2 1.8 4.6 2 7.1-1 2.6-2.6 5.1-4.8 7.3.2-.8.3-1.7.4-2.6 0-.3-.5-.4-.5-.1-.3 2.1-1.1 3.9-2.2 5.5.1-.6.2-1.2.3-1.7 1.9-3 2.6-6.8 1.2-10.2-.1-.2-.5-.2-.4.1.8 3.2.7 6.3-.8 9.1 0-.9-.1-1.7-.3-2.5 0-1.8-.5-3.5-1.3-5.1 1.1-1 2-2.2 2.6-3.5.1-.2-.2-.4-.3-.2-.7 1.1-1.6 2.2-2.6 3.1-1.8-2.9-4.8-5.1-8.6-5.4-.2 0-.2.3 0 .3 3.7.9 6.4 3 7.9 5.7 0 0-.1.1-.2.1-2-2.4-5-4-8.2-4.2-.1-2 .7-4 2.2-5.5.1-.1 0-.2-.1-.1-1.7 1.4-2.7 3.5-2.8 5.6-1.1 0-2.2.1-3.4.4-.2.1-.1.3.1.3 1.2-.2 2.3-.3 3.3-.2.1 1.6.9 3.2 2.4 4.3 2.2 1.6 4.4 1.4 6.2.3.8 1.1 1.5 2.4 1.9 3.7.1 1.8-.2 3.7-1 5.6-2 1.5-4.1 2.7-6.4 3.2-4.5-3.5-7.2-8.9-6.4-14.8 0-.3-.6-.4-.6-.1-.9 5.8 1.3 11.8 6.1 15-1.9.2-3.8-.2-5.8-1.4-5.5-3.4-5.5-10.4-1.8-15.1.2-.3-.1-.7-.4-.4-3.5 3.1-4.4 7.8-2.9 11.8-.2-.1-.5.1-.3.3 4.4 10 17.8 9.5 22 1 .1.6.3 1.2.4 1.8 0 0-.1 0-.1.1-1.1 3.5-.8 7.4 1.4 10.4.2.3.6 0 .4-.2-1.5-3.2-2.2-6.3-1.6-9.8.9 3.2 2.5 6.3 4.9 8.4.3.3.9-.1.7-.5-2.4-3.4-4.5-6.7-5.6-11.1zm-10.2-8.5c-1.5-.9-2.4-2.3-2.6-3.8 3 .4 5.6 1.9 7.5 4-1.5.8-3.1.9-4.9-.2zm6 .3s.1 0 0 0c.1 0 .1.2.2.2l-.2-.2zm1.7 8.3c-.1.1-.2.3-.3.4-.1.1.1.3.2.2 0 .5-.1 1.1-.2 1.7-.7.8-1.5 1.5-2.4 2.1.8-.7 1.5-1.5 2-2.5.1-.1 0-.3 0-.5.3-.6.6-1.3.8-2-.1.3-.1.5-.1.6zm3.8 1.4c.7 2.3 1.7 5.1 3.5 6.8.3.3.8-.1.6-.4-.6-1-1.3-2-1.9-3-.6-1.1-1.2-2.3-1.6-3.5-.2-.4-.7-.3-.6.1zm5.6 1.3c-1.2-1.3-2.3-2.7-3.7-3.7-.3-.2-.7.2-.5.5.8 1.4 2.1 2.6 3.1 3.8 1.2 1.3 2.3 2.8 3.7 3.9.4.3 1-.1.7-.5-.9-1.4-2.2-2.7-3.3-4zm-2.8-4.7c-.1 0-.1 0 0 0 5.8-5.1 12.4-18.2 4.5-23.4-.2-.1-.5.2-.3.4 7.3 6.7-.5 18.7-6 23.5-.3.3.1.8.4.6l.9-.6c0 .1.1.2.2.2 2.6 1.6 4.7 3.7 6.8 5.9.2.3.7-.1.5-.4-1.7-2.9-4.2-4.9-7-6.2zm4.3-2.2c-.2 0-.2.4.1.4 2.9-.1 5.2.6 7.8 1.8.4.2.6-.3.3-.5-2.3-1.8-5.5-2.2-8.2-1.7zm11.3.5c2.5 1 4.8 2.2 7.1 3.7.1.1.2-.1.1-.2-2.2-1.7-4.6-2.9-7.2-3.8 0-.1-.1-.1-.1-.2-2.4-1.5-5.4-2-8.1-2.1-.3 0-.4.5-.1.5 2.8.4 5.3 1.3 7.9 2.1.2.1.3 0 .4 0zm-2.9 4c-2.9-2.4-6.7-3.5-10.4-3.5-.3 0-.3.5 0 .5h.1c-.1.1-.1.3.1.4 2.6 1 5.3 2.2 8 3 .2.1.4-.3.2-.4-2.5-1.1-5.2-2.1-7.8-3 4.1.4 7.5 2 10.8 4.4.1.1.2 0 .3 0 3.3 1.9 6.9 3.5 10.5 4.7.2.1.4-.3.2-.4-4.3-1.8-8.2-3.6-12-5.7zm-6.1-.4c-.3-.1-.5.2-.2.4 3.3 2.2 6.9 4 10.5 5.8.2.1.4-.2.2-.3-3.5-2-6.9-4.2-10.5-5.9zm.7 2.9c-.3-.1-.6.2-.3.4 1.6 1.5 3.7 2.5 5.5 3.7.2.1.4-.2.2-.4-1.7-1.2-3.4-2.7-5.4-3.7zm41.3-4.1c-5.7 1.1-12.6 3.7-17.1 7.5-.2.1 0 .3.2.2 2.8-1.2 5.4-3 8.3-4.2 2.8-1.2 5.8-2.1 8.8-3 .3-.1.1-.6-.2-.5zm-16.8 3.7c4.6-2.3 9-3.6 14-4.3.2 0 .2-.4-.1-.4-5 0-10.1 1.6-14.2 4.4-.1.1.1.5.3.3zm.1-2.7c3.9-1.9 7.8-2.9 12-3.6.2 0 .2-.4-.1-.4-4.3 0-8.5 1.5-12.2 3.7-.1.1.1.4.3.3zm.8-4c3.8-1.3 7.6-2.1 11.4-3 .2 0 .2-.4-.1-.4-3.9.5-7.8 1.7-11.4 3.2-.1.1 0 .2.1.2zm21.6 5.7c-4.2 1.9-8.4 3.9-12.7 5.5-.2.1-.2.5.1.4 4.5-1.3 8.9-3.1 12.9-5.5.2-.2-.1-.6-.3-.4zm2.4 1.6c-2.9 1.5-5.8 3.3-8.8 4.8-.3.1 0 .5.2.4 3.1-1.3 6.1-2.7 8.7-4.8.4-.2.2-.5-.1-.4zm1 3.3c-1.8 1.2-3.6 2.5-5.4 3.7-.3.2 0 .8.3.5 1.8-1.3 3.6-2.6 5.3-4 .2 0 0-.3-.2-.2zm-32.4-4.8c-.2-.1-.4.3-.2.4 1.1.9 2.5 1.8 3.8 2.5.5.2.8-.4.4-.7-1.3-.9-2.6-1.7-4-2.2zm1.1 3.3c-.2-.1-.3.2-.1.3.7.5 1.7.9 2.4 1.4.2.1.4-.2.2-.3-.7-.6-1.6-1.1-2.5-1.4zm.4-5.2c-.2 0-.4.2-.2.4.7.8 1.8 1.2 2.7 1.7.3.2.5-.3.3-.4-.9-.6-1.8-1.4-2.8-1.7zm.9-.2c.4.3.9.5 1.3.7.4.2.7-.4.3-.6-.5-.2-.9-.5-1.4-.5-.1 0-.4.2-.2.4zm1.3-2.1c.2.2.6-.1.4-.3-.2-.3-.4-.6-.6-.8-.2-.1-.5 0-.4.2.2.4.4.6.6.9zm0-2.4c-.2-.2-.4.1-.3.3.2.2.3.4.5.6.2.2.6-.1.4-.4-.2-.1-.4-.3-.6-.5zm.1-1.8-.3-.3c-.1-.1-.3 0-.2.1 0 .2 0 .3.1.5 0 .4.8.1.4-.3z" fill="#1b141c" stroke-width="none" opacity="1" stroke="none"></path><path id="SvgjsPath7792" d="M60.1 51.2c.1-.2-.2-.5-.3-.3-2.2 2.4-5.5 3.7-8.7 2.6-3.6-1.2-5.3-5.4-4.5-8.9.1-.4-.5-.5-.6-.2-2.5 8.6 9.2 14.6 14.1 6.8zm-2.6 8.1c.2-.2-.1-.6-.3-.4-3.5 2.3-9.3.3-11.1-3.4-.1-.2-.5-.1-.4.2 1.5 3.9 8.4 6.9 11.8 3.6zm1.6-.1c.2-.2-.1-.6-.3-.4-2.9 1.8-6 3.6-9.3 1.6-.2-.1-.4.2-.2.4 3.2 2.2 7.2.9 9.8-1.6zm0 1.9c.1-.2-.2-.5-.4-.3-1.5 1.8-3.4 2.9-5.8 2.2-.3-.1-.4.3-.1.4 2.3.7 5.3-.1 6.3-2.3zm-2.3-24c3.4-1.5 6.2 1.2 7 4.3.6 2.1.9 5.8-.7 7.5-.2.2.1.6.3.4 1.3-.8 1.7-2.6 1.7-4.5 2.4-4.1-.9-8-4.2-10.3-.2-.2-.5.2-.2.4 2.9 2.2 5.4 5.3 4.3 8.9-.1-1.6-.6-3.2-1-4.2-1.3-3-4.5-4.7-7.5-3.1-.2.3 0 .7.3.6zm2.9-4.1c7 2.1 9.7 8.9 7.3 15.5-.1.3.3.5.5.2 3.4-6.7-.7-14.3-7.7-16.1-.3-.1-.4.3-.1.4zm7.2-6.7c3.4 1.4 3.9 5 4.2 8.3 0 .3.4.3.5 0 .3-3.6-.9-7.6-4.6-8.8-.3-.1-.4.4-.1.5zM60 27.4c2.5-1.1 4.3.8 6 2.2.2.2.6 0 .4-.3-1.5-2.1-4.2-3.6-6.7-2.3-.2.1 0 .5.3.4zm16.5-1.1c-.1-.2-.3 0-.2.1 4.9 8.5 1.8 18.2-6.6 22.8-.2.1 0 .3.2.3 9-4.1 11.8-14.7 6.6-23.2zm1.3 16.1c-.1.2.2.4.3.2 1.9-1.9 3.6-4.4 3.1-7.2 0-.2-.3-.2-.3 0 .2 2.9-1.5 4.9-3.1 7zm-22.5 4.7c.2 0 .3-.2.1-.3-2.2-1.1-4.8-3-3.9-5.8.1-.3-.3-.4-.4-.1-1 2.9 1.3 5.6 4.2 6.2zm-1.1 18.2c-4.5.5-10.9-.7-10.8-6.5 0-.2-.3-.2-.3 0-.4 6.2 6.3 8 11.2 6.9.2-.1.2-.4-.1-.4zm14.7-12.2c-.2-.2-.5 0-.4.2 1.4 2.5 2.9 5.2 5.1 7.1.2.2.5 0 .3-.3-1.6-2.3-3.5-4.5-5-7zm.4 3.1c-.1-.2-.5 0-.3.2 1.3 2.1 2.5 4.2 4 6.1.1.2.4 0 .3-.2-1.2-2.1-2.6-4.1-4-6.1zm-2.8 3.1c-.2-.2-.5 0-.3.2 1.2 2 2.2 4.3 3.7 6.1.2.2.5-.1.4-.3-1-2.1-2.5-4.1-3.8-6zm-2.9 3.5c.5 2.1 1.3 4.4 2.6 6.1.2.2.6.1.5-.2-.8-2-1.9-3.9-2.7-6-.1-.2-.4-.1-.4.1zm-.4 2.1c.5 1.8 1.1 3.7 2.1 5.2.1.2.5.1.4-.2-.6-1.8-1.5-3.4-2.1-5.2-.1-.2-.5 0-.4.2zm-1.5 2.9c.3 2.4.6 5.1 1.6 7.3.1.2.5.1.4-.2-.5-2.4-1.3-4.7-1.7-7.2 0-.2-.4-.1-.3.1zm-1.5 2.9c.4 1.9.8 3.9 1.8 5.5.1.2.5.1.5-.2-.6-1.8-1.4-3.6-1.9-5.4-.1-.3-.4-.2-.4.1zm-.6 4c0-.2-.4-.1-.4.1.2 1.6.6 3.5 1.6 4.8.1.2.3 0 .3-.2-.2-.8-.7-1.5-.9-2.3l-.6-2.4zm-.8 5.2c-.1-.2-.4-.1-.3.1.3 1.1.8 2.3 1.7 3.2.1.1.3 0 .2-.2-.6-1.1-1.2-2-1.6-3.1zm25.6-27.4c-.3-.1-.4.3-.1.4 3.1 1.2 6.1 2.9 9.2 4 .2.1.3-.2.2-.4-2.7-1.8-6.2-2.9-9.3-4zm4-.9c-.2-.1-.5.2-.2.4 1.3.7 2.7 1.5 4 2.3-2.2-1.2-4.7-2.1-7.1-3.1-.2-.1-.4.3-.2.5 2.5 1.1 5 2.5 7.6 3.3.2.1.4-.2.2-.4.7.4 1.5.8 2.2 1.1.2.1.6-.2.3-.4-1.9-1.7-4.4-2.7-6.8-3.7zm-.4-3.7c-.3-.1-.6.3-.3.5 2.8 1.3 5.4 3 8.1 4.5.2.1.4-.2.2-.3-2.3-2-5.1-3.4-8-4.7zm2.5-.9c-.2-.1-.4.2-.2.3 2 1.2 4 2.5 6.1 3.5.2.1.3-.1.1-.2-1.9-1.4-4-2.4-6-3.6zm1.8.1c1.3.6 2.5 1.4 3.7 2.2.1.1.2-.1.1-.2-1.1-1-2.4-1.7-3.7-2.3-.2 0-.3.2-.1.3zm3.9-.5c-1.6-1-3.4-1.7-5.2-2.3-.2-.1-.3.3-.1.3 1.8.7 3.4 1.5 5.2 2.2.2.2.3-.1.1-.2zm-4.1-4.2c-.2 0-.3.2-.1.3 1.8.5 3.2 1.5 4.8 2.4.2.1.4-.2.3-.3-1.4-1.3-3.3-2-5-2.4zm3.7.4c.1 0 .2-.1.1-.2-.9-.5-2-.9-3-1.2-.2 0-.2.2-.1.2 1.1.4 2 .9 3 1.2zm-5.6-3.5c-.3 0-.4.3-.1.4 2.6.5 5 1.4 7.4 2.4.2.1.3-.1.1-.2-2.3-1.4-4.8-2.1-7.4-2.6zm3 .4c.7.2 1.3.4 1.9.7.2.1.3-.2.2-.3-.6-.4-1.2-.6-1.9-.8-.4-.1-.5.3-.2.4zm-5.4 17.5c-2.2-1.1-4.5-2.1-6.7-3.2-.3-.2-.6.3-.3.5 2.2 1.2 4.5 2.3 6.9 3.1.2 0 .3-.3.1-.4zM75 52.6c-.2-.1-.4.2-.2.3 1.7 1.5 3.6 2.8 5.7 3.7.3.1.5-.2.2-.4-2-1.2-3.9-2.3-5.7-3.6zm16.2 6.9c-2.5-.4-5.3.5-6.8 2.6-2.3 3.1-.1 6.2-.1 9.5 0 .2.3.2.3 0 .3-2.3-.9-4.4-.6-6.7.5-3.8 3.9-4.8 7.1-5.1.2.1.3-.3.1-.3zm20.7-8.7c-4.6 1.5-9.3 3.9-12.4 7.7-.1.2.1.4.2.2 3.6-3.6 8-5.2 12.4-7.5.3-.1.1-.5-.2-.4zm-11 2.6c2.3-1.7 5-2.4 7.6-3.5.3-.1.2-.5-.1-.5-2.8.6-5.6 1.7-7.7 3.7-.2.2 0 .4.2.3zm8.5-7.2c-2.6.6-5.1 1.8-7.4 3-.2.1 0 .3.2.2 2.4-1.1 4.9-1.9 7.3-2.9.2 0 .1-.3-.1-.3zm.2-1.5c-3 .3-5.9 1.6-8.4 3.5-.1.1 0 .3.1.2 2.6-1.6 5.3-2.6 8.3-3.3.2-.1.2-.4 0-.4zm-8 1.3c2.4-1.3 4.9-2.1 7.4-2.9.2-.1.2-.4-.1-.4-2.6.5-5.2 1.7-7.4 3.1-.1.1 0 .2.1.2zm5.9-4.4c-2.6.6-4.9 1.8-7 3.4-.1.1 0 .3.1.2 2.2-1.4 4.5-2.4 6.9-3.2.3-.2.2-.5 0-.4zm-7.1 1.9c2.9-1.6 5.9-2.5 9.1-3.3.1 0 .1-.3 0-.3-3.2.2-6.4 1.7-9.1 3.5-.2 0-.1.1 0 .1zm.5-2.3c2.8-1.2 5.7-1.7 8.7-2 .2 0 .2-.3 0-.3-3.1 0-6.1.8-8.8 2.1-.1.1 0 .2.1.2zm20.4 10.6c-5.6 1.3-11.2 3.3-16.5 5.4-.2.1-.1.4.1.4 5.6-1.4 11.3-2.9 16.6-5 .5-.2.3-.9-.2-.8zm2.5.3c-5.1 2.2-10 4.1-15.4 5.5-.2.1-.2.4.1.4 5.4-.6 11.1-2.4 15.7-5.4.2-.2-.1-.6-.4-.5zm3.5 1.8c-3.7 2.1-7.3 3.9-11.5 4.8-.3.1-.2.6.2.5 4.2-.7 8.3-2.2 11.6-4.9.2-.2 0-.5-.3-.4zm.5 2.6c-2.5 1.4-4.7 2.8-7.4 3.8-.3.1-.2.6.1.5 2.7-.8 5.5-1.9 7.6-3.8.2-.3-.1-.7-.3-.5zm1.8 2.6c.2-.2-.1-.5-.3-.4-1 .5-1.8 1.3-2.7 2-.9.7-1.8 1.3-2.8 1.9-.2.2 0 .5.2.4 1.9-1 4.1-2.2 5.6-3.9zm3.8-.1c.2-.2-.1-.5-.3-.3-2.4 2-4.7 3.9-7.4 5.3-.3.2 0 .7.3.5 2.8-1.3 5.5-3.1 7.4-5.5zm.9 3.3c.1-.2-.1-.5-.4-.3-1.7 1.2-3.2 2.8-4.9 4.1-.3.2 0 .7.3.5 1.8-1.3 3.8-2.6 5-4.3zm.8 2.3c.2-.2-.2-.4-.4-.3-1.8 1.4-3.3 3.3-4.9 5-.2.2.1.5.3.3 1.7-1.6 3.6-3.2 5-5zm.6 2c.1-.2-.1-.5-.3-.3-1.5 1.1-2.8 2.7-4.1 4.1-.3.3.2.7.4.4 1.3-1.3 2.9-2.6 4-4.2zm.5 2.2c.1-.2-.2-.4-.3-.2-1.1.9-2 2.3-2.8 3.4-.1.2.2.4.4.2.5-.6 1-1.3 1.5-1.9.3-.5.8-1 1.2-1.5zm.3 6.1c-.4.3-.7.8-1 1.2s-.6.8-1 1.2c-.2.3.2.7.4.4.3-.4.7-.9 1-1.3.3-.4.7-.8.9-1.2.1-.3-.1-.5-.3-.3zm1.6 2c-.5.9-1 1.9-1.6 2.7-.3.4.4.7.6.3.6-.9 1.1-1.9 1.4-2.9 0-.2-.3-.3-.4-.1zm-9.9-34.1c.1-.1.1-.2.1-.4-2-3.6-3.1-7.3-.2-10.8.3-.3-.2-.8-.5-.5-1.8 1.7-2.5 4.1-2.2 6.3-.3-1.1-.4-2.3 0-3.7.1-.2-.3-.3-.3-.1-1.2 3.4.3 6.9 2.8 9.3.1.4.5.1.3-.1zm-1 1.9c.2.1.4-.2.2-.4-1.1-1.2-2.3-2.2-3.1-3.8-.9-1.8-1.4-3.8-1.4-5.8 0-.3-.4-.3-.4 0-.2 3.3 1 8.8 4.7 10zm-.2.7c.3 0 .3-.3.1-.4-3.4-1.4-6-6.5-5.2-10.1.1-.3-.3-.4-.4-.1-1 3.5 1.2 10.6 5.5 10.6zm-5.4-1.5c.2.1.4-.2.2-.3-1.2-1.4-2.3-2.7-3.1-4.4-.1-.3-.6 0-.5.3.8 1.6 1.9 3.4 3.4 4.4zm19.7 11.8c.3.2.6-.2.4-.5-3.3-3-4.8-6.8-3.2-11.2.1-.4-.5-.6-.6-.2-1.6 4.2-.6 9.3 3.4 11.9zm4.3 11.3c-5.5-.9-9-5.6-7.8-11.2.1-.3-.4-.4-.5-.1-1.2 5.4 1.9 12.1 8.2 11.9.3 0 .4-.6.1-.6zm1.8-1.6c-3.8 1.2-7.6-4.8-7.3-8.1 0-.2-.4-.3-.4-.1-.4 2.6.9 4.8 2.4 6.8 1.3 1.6 3.5 3.5 5.5 2 .4-.2.2-.7-.2-.6zm-2.6-22.2c-.4-.4-.7-.7-1.2-1-.3-.2-.6.3-.4.5 4.7 3.7 6.9 14 2.6 18.5-.2-.2-.4-.3-.6-.5-.9-.9-1.6-2-2.1-3.2-.2-.4-.8-.2-.6.2.8 2.2 2.7 4.9 5.1 5.6.3.1.6-.3.3-.5-.5-.4-1.1-.8-1.6-1.2 2.9-2.2 3.2-5.7 2.5-9.1-.4-1.9-.9-4-1.8-5.9.1 0 .1-.1.1-.2-.4-1.2-1.1-2.2-1.9-3.1-.2-.2-.3-.2-.4-.1zm-5-13.7c4.9 1.6 6.8 8.9 2.1 11.8-.2.1-.1.5.2.4 6.2-2 2.7-11.2-2.2-12.5-.2-.1-.3.2-.1.3zm-5 9.2c.3.2.7-.2.5-.5-.5-.7-1.1-1.3-1.5-2.2-.3-.9-.4-1.9-.2-2.8.1-.5-.7-.7-.8-.2-.3 2 .2 4.6 2 5.7zm19.9 9.2c-.2-.1-.4-.3-.6-.4-.6-3.3-3-6.4-5.2-8.8-.2-.3-.6.1-.4.4 1.2 1.5 2.2 3.1 3.1 4.7.6 1.1 1 2.2 1.5 3.3-.1 0-.2-.1-.4-.1-.3-.1-.5.4-.2.5.4.2.7.4 1 .6.1.1.1.3.2.4.1.2.3.1.4 0 5.6 4.1 3.8 13.7-1.8 17.4-.3.2-.1.7.3.5 6.2-2.7 7.9-13.4 2.8-17.8v-.2c-.8-5.4-3.2-11-7.8-14.1-.3-.2-.5.3-.3.5 4.7 3.3 5.8 8.2 7.4 13.1zM148 65c2.3.4 3.9-1.4 4.8-3.3 1.2-2.7 1-5.6-.1-8.3-.2-.4-.9-.1-.7.3 1.4 3.5.9 10.2-3.9 10.7-.3 0-.4.6-.1.6zm2.5 7.5c-1 .7-2.2 1-3.3.2-.2-.2-.5.1-.3.3 1.1.9 2.9 1 3.8-.2.2-.2 0-.4-.2-.3zm1.7-3.1c-.7.5-1.3 1.1-2.2 1.4-.9.3-1.9.4-2.8.1-.4-.1-.6.5-.2.6 1.8.7 4.8.4 5.7-1.6.2-.3-.2-.8-.5-.5zm6.8-6.2c-.4.9-.7 1.8-1.3 2.6-.6.9-1.7 2.1-2.9 1.7-.4-.1-.6.5-.3.6 2.6 1.1 5-2.6 5.1-4.8.1-.3-.4-.4-.6-.1zm-6.5-10.6c.3-4-1.1-8-3.4-11.3-.3-.4-.9 0-.6.4 2.2 3.4 3.1 6.9 3.6 10.9-.1.3.4.3.4 0z" fill="#3a353a" stroke-width="none" opacity="1" stroke="none"></path></g><g id="svga-group-glasses-single-move" transform="matrix(1,0,0,1,0,0)"><g id="svga-group-glasses-single"><path id="SvgjsPath7695" d="M69.35 87.31c-2.55 1.21-4.68 3.49-3.34 9.94 1.34 6.46 4.97 10.24 8.53 12.91 3.56 2.67 9.72 2.52 13.8 1.11s8.09-10.02 8.24-14.03c.15-4.01-1.78-6.31-6.23-8.61-4.45-2.29-15.21-4.07-21-1.32z" fill="url(#SvgjsLinearGradient7696)" opacity="1"></path><path id="SvgjsPath7704" d="M130.65 87.31c2.55 1.21 4.68 3.49 3.34 9.94s-4.97 10.24-8.53 12.91c-3.56 2.67-9.72 2.52-13.8 1.11s-8.09-10.02-8.24-14.03c-.15-4.01 1.78-6.31 6.23-8.61 4.45-2.29 15.21-4.07 21-1.32z" fill="url(#SvgjsLinearGradient7705)" opacity="1"></path><path id="SvgjsPath7713" d="M135.67 87.81c-.97-2.41-7.15-2.41-10.24-2.61-3.09-.19-14.07-.09-18.69 4.53-4.01 4.01-5.46 4.35-6.33 4.35h-.84c-.87 0-2.32-.35-6.33-4.35-4.62-4.62-15.6-4.72-18.69-4.53-3.09.19-9.27.19-10.24 2.61-.97 2.41-.1 9.17 2.61 15.36 2.7 6.18 8.11 9.66 16.13 9.85 8.02.19 11.84-7.71 12.94-10.62 1.21-3.18 1.74-5.99 3.57-5.99h.84c1.83 0 2.37 2.8 3.57 5.99 1.11 2.91 4.93 10.82 12.94 10.62 8.02-.19 13.42-3.67 16.13-9.85 2.73-6.18 3.59-12.94 2.63-15.36zm-41.81 16.14c-2.51 4.54-5.85 9.03-13.67 7.68-6.67-1.15-11.71-7.78-13.15-12.61-1.45-4.83-1.8-12.57 9.79-12.28 11.59.29 15.61 3.86 17.85 6.16 1.9 1.95 1.34 7.15-.82 11.05zm39.1-4.93c-1.45 4.83-6.49 11.46-13.15 12.61-7.82 1.35-11.16-3.14-13.67-7.68-2.16-3.9-2.71-9.1-.81-11.05 2.24-2.3 6.26-5.87 17.85-6.16 11.59-.29 11.23 7.45 9.78 12.28z" fill="#26120b" stroke-width="none" opacity="1"></path><path id="SvgjsPath7714" d="M135.65 87.82c-.45-.97-1.51-1.42-2.49-1.7-1-.29-2.04-.44-3.08-.55-1.04-.11-2.08-.16-3.13-.21-1.05-.04-2.09-.12-3.13-.12-4.16.02-8.39.46-12.31 1.85-.49.16-.96.4-1.44.59-.46.23-.92.47-1.36.74-.88.56-1.65 1.21-2.39 1.97-.75.73-1.52 1.45-2.33 2.12-.82.66-1.67 1.31-2.73 1.66-.27.08-.55.13-.83.13h-.79c-.56.02-1.12-.15-1.6-.39-.97-.49-1.8-1.16-2.6-1.84-.8-.69-1.56-1.42-2.3-2.16-.75-.7-1.56-1.33-2.49-1.8-1.82-.98-3.83-1.59-5.87-2.01-2.04-.42-4.12-.64-6.2-.75-2.08-.14-4.17-.01-6.26.1-2.07.13-4.2.24-6.14.96-.48.18-.94.43-1.31.78-.4.33-.56.83-.68 1.33-.19.99-.19 2.05-.13 3.08.14 2.08.54 4.14 1.08 6.15.55 2.01 1.24 3.99 2.13 5.87.88 1.88 2.12 3.6 3.66 4.98 1.53 1.41 3.39 2.41 5.34 3.1 1.96.67 4.04.99 6.11 1.09 2.06.11 4.15-.23 5.97-1.22 1.8-.98 3.37-2.39 4.59-4.06 1.24-1.65 2.22-3.51 2.94-5.45l1.05-2.96c.19-.49.39-.99.65-1.46s.59-.95 1.12-1.24c.25-.16.56-.21.85-.23h.79c.58-.04 1.18.29 1.54.72.72.87 1.05 1.9 1.41 2.88.35.99.68 1.98 1.06 2.94.39.96.85 1.89 1.37 2.79 1.03 1.79 2.34 3.43 3.93 4.74 1.59 1.3 3.52 2.16 5.55 2.45 1.01.13 2.05.12 3.09.05l1.55-.15c.51-.09 1.03-.15 1.53-.26 2.02-.43 4.01-1.14 5.75-2.26a14.65 14.65 0 0 0 4.4-4.33c1.17-1.72 1.93-3.69 2.62-5.65.68-1.97 1.2-4 1.54-6.06.16-1.03.28-2.07.31-3.11.03-1.05 0-2.11-.34-3.1zm.04-.02c.36 1 .4 2.06.39 3.11-.02 1.05-.13 2.09-.28 3.13a36.68 36.68 0 0 1-1.49 6.1c-.68 1.98-1.42 3.96-2.59 5.72-1.14 1.77-2.66 3.3-4.43 4.45-1.76 1.17-3.78 1.91-5.83 2.38-.51.12-1.04.19-1.56.29l-1.57.18c-1.05.08-2.11.11-3.17-.02-2.12-.26-4.14-1.18-5.79-2.52-1.64-1.36-2.98-3.04-4.03-4.87-.53-.92-1-1.86-1.39-2.84-.39-.98-.72-1.98-1.07-2.96-.35-.97-.7-1.98-1.32-2.73-.32-.36-.72-.59-1.2-.57h-.78c-.23.02-.45.05-.65.17-.8.47-1.19 1.54-1.57 2.47l-1.05 2.95c-.74 1.98-1.74 3.86-3.01 5.55-1.25 1.7-2.86 3.17-4.74 4.17-1.88 1.01-4.08 1.35-6.18 1.21-2.1-.11-4.2-.46-6.19-1.16-1.98-.72-3.87-1.76-5.41-3.2-1.57-1.42-2.81-3.17-3.69-5.08-.89-1.9-1.57-3.89-2.11-5.92-.54-2.02-.93-4.1-1.05-6.19-.05-1.05-.06-2.1.15-3.15.11-.5.28-1.06.71-1.42.39-.37.87-.63 1.36-.82 1.99-.75 4.12-.87 6.2-1.02 2.09-.12 4.19-.26 6.28-.14 2.09.09 4.19.3 6.25.71 2.06.42 4.1 1.01 5.97 2.01.95.48 1.8 1.13 2.58 1.85.74.73 1.5 1.45 2.29 2.12.79.67 1.61 1.32 2.52 1.76.46.22.92.37 1.42.36.53-.01 1.04.05 1.5-.1.95-.3 1.8-.93 2.61-1.57.81-.65 1.58-1.35 2.33-2.07.72-.74 1.56-1.44 2.46-1.99.46-.27.93-.51 1.4-.74.49-.19.97-.43 1.47-.59 1.99-.7 4.06-1.12 6.13-1.39 2.08-.27 4.18-.38 6.27-.36 1.05.01 2.09.09 3.14.14 1.04.06 2.09.12 3.13.24s2.08.28 3.09.58c.97.32 2.05.77 2.5 1.77z" fill="#070201" stroke-width="none" opacity="1"></path><path id="SvgjsPath7715" d="M93.88 103.96c-.87 1.58-1.82 3.14-3.04 4.48a10.646 10.646 0 0 1-4.47 3.05c-1.74.59-3.62.65-5.43.44-1.82-.19-3.59-.82-5.17-1.73-3.16-1.85-5.65-4.68-7.39-7.85-.87-1.59-1.51-3.31-1.87-5.09-.36-1.77-.45-3.64.05-5.42.52-1.77 1.82-3.29 3.48-4.11 1.66-.84 3.51-1.1 5.33-1.2 3.64-.08 7.28.23 10.8 1.19 1.75.49 3.48 1.15 5.04 2.1.77.49 1.52 1.03 2.2 1.63.34.3.67.62.99.94.31.32.66.66.87 1.09.45.83.61 1.76.65 2.67.03.91-.06 1.82-.22 2.71-.32 1.79-.94 3.51-1.82 5.1zm-.04-.03c.84-1.59 1.46-3.31 1.73-5.09.14-.89.2-1.79.14-2.68-.06-.89-.25-1.78-.69-2.53-.2-.39-.52-.68-.84-1-.32-.31-.66-.61-1-.9-.69-.57-1.42-1.08-2.19-1.53a20.91 20.91 0 0 0-4.95-2.01c-3.46-.91-7.08-1.26-10.66-1.21-1.77.08-3.58.3-5.18 1.08-1.6.75-2.85 2.17-3.39 3.86-.51 1.71-.45 3.55-.12 5.31.17.88.4 1.75.7 2.6.32.84.7 1.66 1.15 2.44 1.77 3.12 4.29 5.87 7.43 7.6 1.55.88 3.27 1.44 5.03 1.66 1.76.24 3.58.19 5.29-.31 1.7-.54 3.25-1.54 4.47-2.86 1.24-1.3 2.19-2.86 3.08-4.43z" fill="#070201" stroke-width="none" opacity="1"></path><path id="SvgjsPath7716" d="M132.99 99.02c-1.1 3.45-3.18 6.56-5.84 9.03-1.34 1.23-2.88 2.26-4.57 2.97-1.69.73-3.54 1.01-5.36 1.04-1.83.03-3.67-.43-5.28-1.31-1.6-.89-2.91-2.23-3.96-3.7-.54-.73-.99-1.52-1.46-2.29a19.7 19.7 0 0 1-1.24-2.42c-.69-1.68-1.15-3.46-1.22-5.29-.03-.91.03-1.84.3-2.73.15-.44.33-.88.63-1.25.29-.39.62-.68.95-1a16.03 16.03 0 0 1 4.5-3.09c3.32-1.56 6.99-2.13 10.59-2.38.91-.03 1.81-.11 2.72-.08l1.37.03c.46.03.91.11 1.36.16 1.79.28 3.62.87 5.01 2.1.71.59 1.23 1.38 1.62 2.21.34.85.57 1.75.61 2.66.13 1.8-.23 3.61-.73 5.34zm-.05-.01c.47-1.73.83-3.54.63-5.33-.07-.9-.32-1.77-.68-2.58-.41-.78-.91-1.53-1.61-2.08-1.36-1.14-3.13-1.66-4.88-1.89-1.76-.25-3.57-.14-5.36-.06-3.57.28-7.18.81-10.44 2.3-1.62.74-3.13 1.72-4.44 2.95-.67.61-1.28 1.23-1.53 2.09-.27.84-.35 1.73-.34 2.63.05 1.79.48 3.56 1.14 5.23.69 1.66 1.62 3.22 2.68 4.67 1.06 1.44 2.38 2.73 3.95 3.57 1.58.83 3.37 1.21 5.15 1.16 1.78-.03 3.56-.35 5.21-1.02s3.16-1.66 4.53-2.81c2.71-2.34 4.88-5.39 5.99-8.83z" fill="#070201" stroke-width="none" opacity="1"></path></g></g></g></g></g><rect id="svga-credit-rect" width="200" height="15" x="0" y="185" fill="#ecf0f1" opacity="0.5" style="display: none;"></rect><text id="svga-credit-text" font-family="Avenir Next, Roboto, Helvetica, Arial, sans-serif" font-size="10px" text-anchor="start" font-weight="400" size="10px" anchor="start" weight="400" fill="#333333" x="33.40447998046875" y="182.60824704170227" style="display: none;"><tspan id="SvgjsTspan7480" dy="13" x="33.40447998046875">Created on AvatarMaker.com</tspan></text></g><defs id="SvgjsDefs7432"><linearGradient id="SvgjsLinearGradient7696" x1="81.0936" y1="85.914" x2="81.0936" y2="112.2733" gradientUnits="userSpaceOnUse" class="svga-on-canvas-glasses-gradient-single-0-null"><stop id="SvgjsStop7697" stop-opacity="1" stop-color="#211810" offset="0" ></stop><stop id="SvgjsStop7698" stop-opacity="0.7372" stop-color="#231b13" offset="0.2628" ></stop><stop id="SvgjsStop7699" stop-opacity="0.5527" stop-color="#2b231c" offset="0.4473" ></stop><stop id="SvgjsStop7700" stop-opacity="0.3921" stop-color="#38312c" offset="0.6079" ></stop><stop id="SvgjsStop7701" stop-opacity="0.2453" stop-color="#4b4641" offset="0.7547" ></stop><stop id="SvgjsStop7702" stop-opacity="0.1091" stop-color="#62605e" offset="0.8909" ></stop><stop id="SvgjsStop7703" stop-opacity="0" stop-color="#7a7a7a" offset="1" ></stop></linearGradient><linearGradient id="SvgjsLinearGradient7705" x1="-18.9064" y1="85.914" x2="-18.9064" y2="112.2733" gradientTransform="matrix(-1 0 0 1 100 0)" gradientUnits="userSpaceOnUse" class="svga-on-canvas-glasses-gradient-single-1-null"><stop id="SvgjsStop7706" stop-opacity="1" stop-color="#211810" offset="0" ></stop><stop id="SvgjsStop7707" stop-opacity="0.7372" stop-color="#231b13" offset="0.2628" ></stop><stop id="SvgjsStop7708" stop-opacity="0.5527" stop-color="#2b231c" offset="0.4473" ></stop><stop id="SvgjsStop7709" stop-opacity="0.3921" stop-color="#38312c" offset="0.6079" ></stop><stop id="SvgjsStop7710" stop-opacity="0.2453" stop-color="#4b4641" offset="0.7547" ></stop><stop id="SvgjsStop7711" stop-opacity="0.1091" stop-color="#62605e" offset="0.8909" ></stop><stop id="SvgjsStop7712" stop-opacity="0" stop-color="#7a7a7a" offset="1" ></stop></linearGradient></defs></svg>